<svg width="212" height="36" viewBox="0 0 212 36" fill="none" xmlns="http://www.w3.org/2000/svg">
<path d="M34.4766 35H26.9297L23.9297 27.1953H10.1953L7.35938 35H0L13.3828 0.640625H20.7188L34.4766 35ZM21.7031 21.4062L16.9688 8.65625L12.3281 21.4062H21.7031ZM37.8516 35V0.640625H44.4375V13.0156C46.4688 10.7031 48.875 9.54688 51.6562 9.54688C54.6875 9.54688 57.1953 10.6484 59.1797 12.8516C61.1641 15.0391 62.1562 18.1875 62.1562 22.2969C62.1562 26.5469 61.1406 29.8203 59.1094 32.1172C57.0938 34.4141 54.6406 35.5625 51.75 35.5625C50.3281 35.5625 48.9219 35.2109 47.5312 34.5078C46.1562 33.7891 44.9688 32.7344 43.9688 31.3438V35H37.8516ZM44.3906 22.0156C44.3906 24.5938 44.7969 26.5 45.6094 27.7344C46.75 29.4844 48.2656 30.3594 50.1562 30.3594C51.6094 30.3594 52.8438 29.7422 53.8594 28.5078C54.8906 27.2578 55.4062 25.2969 55.4062 22.625C55.4062 19.7812 54.8906 17.7344 53.8594 16.4844C52.8281 15.2188 51.5078 14.5859 49.8984 14.5859C48.3203 14.5859 47.0078 15.2031 45.9609 16.4375C44.9141 17.6562 44.3906 19.5156 44.3906 22.0156ZM65.9531 22.2031C65.9531 20.0156 66.4922 17.8984 67.5703 15.8516C68.6484 13.8047 70.1719 12.2422 72.1406 11.1641C74.125 10.0859 76.3359 9.54688 78.7734 9.54688C82.5391 9.54688 85.625 10.7734 88.0312 13.2266C90.4375 15.6641 91.6406 18.75 91.6406 22.4844C91.6406 26.25 90.4219 29.375 87.9844 31.8594C85.5625 34.3281 82.5078 35.5625 78.8203 35.5625C76.5391 35.5625 74.3594 35.0469 72.2812 34.0156C70.2188 32.9844 68.6484 31.4766 67.5703 29.4922C66.4922 27.4922 65.9531 25.0625 65.9531 22.2031ZM72.7031 22.5547C72.7031 25.0234 73.2891 26.9141 74.4609 28.2266C75.6328 29.5391 77.0781 30.1953 78.7969 30.1953C80.5156 30.1953 81.9531 29.5391 83.1094 28.2266C84.2812 26.9141 84.8672 25.0078 84.8672 22.5078C84.8672 20.0703 84.2812 18.1953 83.1094 16.8828C81.9531 15.5703 80.5156 14.9141 78.7969 14.9141C77.0781 14.9141 75.6328 15.5703 74.4609 16.8828C73.2891 18.1953 72.7031 20.0859 72.7031 22.5547ZM113.203 35V31.2734C112.297 32.6016 111.102 33.6484 109.617 34.4141C108.148 35.1797 106.594 35.5625 104.953 35.5625C103.281 35.5625 101.781 35.1953 100.453 34.4609C99.125 33.7266 98.1641 32.6953 97.5703 31.3672C96.9766 30.0391 96.6797 28.2031 96.6797 25.8594V10.1094H103.266V21.5469C103.266 25.0469 103.383 27.1953 103.617 27.9922C103.867 28.7734 104.312 29.3984 104.953 29.8672C105.594 30.3203 106.406 30.5469 107.391 30.5469C108.516 30.5469 109.523 30.2422 110.414 29.6328C111.305 29.0078 111.914 28.2422 112.242 27.3359C112.57 26.4141 112.734 24.1719 112.734 20.6094V10.1094H119.32V35H113.203ZM137.578 10.1094V15.3594H133.078V25.3906C133.078 27.4219 133.117 28.6094 133.195 28.9531C133.289 29.2812 133.484 29.5547 133.781 29.7734C134.094 29.9922 134.469 30.1016 134.906 30.1016C135.516 30.1016 136.398 29.8906 137.555 29.4688L138.117 34.5781C136.586 35.2344 134.852 35.5625 132.914 35.5625C131.727 35.5625 130.656 35.3672 129.703 34.9766C128.75 34.5703 128.047 34.0547 127.594 33.4297C127.156 32.7891 126.852 31.9297 126.68 30.8516C126.539 30.0859 126.469 28.5391 126.469 26.2109V15.3594H123.445V10.1094H126.469V5.16406L133.078 1.32031V10.1094H137.578ZM155.508 0.640625H162.445V19.25C162.445 22.2031 162.531 24.1172 162.703 24.9922C163 26.3984 163.703 27.5312 164.812 28.3906C165.938 29.2344 167.469 29.6562 169.406 29.6562C171.375 29.6562 172.859 29.2578 173.859 28.4609C174.859 27.6484 175.461 26.6562 175.664 25.4844C175.867 24.3125 175.969 22.3672 175.969 19.6484V0.640625H182.906V18.6875C182.906 22.8125 182.719 25.7266 182.344 27.4297C181.969 29.1328 181.273 30.5703 180.258 31.7422C179.258 32.9141 177.914 33.8516 176.227 34.5547C174.539 35.2422 172.336 35.5859 169.617 35.5859C166.336 35.5859 163.844 35.2109 162.141 34.4609C160.453 33.6953 159.117 32.7109 158.133 31.5078C157.148 30.2891 156.5 29.0156 156.188 27.6875C155.734 25.7188 155.508 22.8125 155.508 18.9688V0.640625ZM187.875 27.8984L194.484 26.8906C194.766 28.1719 195.336 29.1484 196.195 29.8203C197.055 30.4766 198.258 30.8047 199.805 30.8047C201.508 30.8047 202.789 30.4922 203.648 29.8672C204.227 29.4297 204.516 28.8438 204.516 28.1094C204.516 27.6094 204.359 27.1953 204.047 26.8672C203.719 26.5547 202.984 26.2656 201.844 26C196.531 24.8281 193.164 23.7578 191.742 22.7891C189.773 21.4453 188.789 19.5781 188.789 17.1875C188.789 15.0312 189.641 13.2188 191.344 11.75C193.047 10.2812 195.688 9.54688 199.266 9.54688C202.672 9.54688 205.203 10.1016 206.859 11.2109C208.516 12.3203 209.656 13.9609 210.281 16.1328L204.07 17.2812C203.805 16.3125 203.297 15.5703 202.547 15.0547C201.812 14.5391 200.758 14.2812 199.383 14.2812C197.648 14.2812 196.406 14.5234 195.656 15.0078C195.156 15.3516 194.906 15.7969 194.906 16.3438C194.906 16.8125 195.125 17.2109 195.562 17.5391C196.156 17.9766 198.203 18.5938 201.703 19.3906C205.219 20.1875 207.672 21.1641 209.062 22.3203C210.438 23.4922 211.125 25.125 211.125 27.2188C211.125 29.5 210.172 31.4609 208.266 33.1016C206.359 34.7422 203.539 35.5625 199.805 35.5625C196.414 35.5625 193.727 34.875 191.742 33.5C189.773 32.125 188.484 30.2578 187.875 27.8984Z" fill="url(#paint0_linear)"/>
<defs>
<linearGradient id="paint0_linear" x1="119" y1="-9" x2="119" y2="30" gradientUnits="userSpaceOnUse">
<stop stop-color="#7A64FF"/>
<stop offset="1" stop-color="#0062F2" stop-opacity="0.655556"/>
</linearGradient>
</defs>
</svg>
