<svg width="211" height="170" viewBox="0 0 211 170" fill="none" xmlns="http://www.w3.org/2000/svg">
<rect width="211" height="170" rx="30" fill="#3648CB"/>
<path d="M84.2031 93V77.8477H78.543V75.8203H92.1602V77.8477H86.4766V93H84.2031ZM100.082 88.9922L102.262 89.2617C101.918 90.5352 101.281 91.5234 100.352 92.2266C99.4219 92.9297 98.2344 93.2812 96.7891 93.2812C94.9688 93.2812 93.5234 92.7227 92.4531 91.6055C91.3906 90.4805 90.8594 88.9062 90.8594 86.8828C90.8594 84.7891 91.3984 83.1641 92.4766 82.0078C93.5547 80.8516 94.9531 80.2734 96.6719 80.2734C98.3359 80.2734 99.6953 80.8398 100.75 81.9727C101.805 83.1055 102.332 84.6992 102.332 86.7539C102.332 86.8789 102.328 87.0664 102.32 87.3164H93.0391C93.1172 88.6836 93.5039 89.7305 94.1992 90.457C94.8945 91.1836 95.7617 91.5469 96.8008 91.5469C97.5742 91.5469 98.2344 91.3438 98.7812 90.9375C99.3281 90.5312 99.7617 89.8828 100.082 88.9922ZM93.1562 85.582H100.105C100.012 84.5352 99.7461 83.75 99.3086 83.2266C98.6367 82.4141 97.7656 82.0078 96.6953 82.0078C95.7266 82.0078 94.9102 82.332 94.2461 82.9805C93.5898 83.6289 93.2266 84.4961 93.1562 85.582ZM104.078 89.2852L106.164 88.957C106.281 89.793 106.605 90.4336 107.137 90.8789C107.676 91.3242 108.426 91.5469 109.387 91.5469C110.355 91.5469 111.074 91.3516 111.543 90.9609C112.012 90.5625 112.246 90.0977 112.246 89.5664C112.246 89.0898 112.039 88.7148 111.625 88.4414C111.336 88.2539 110.617 88.0156 109.469 87.7266C107.922 87.3359 106.848 87 106.246 86.7188C105.652 86.4297 105.199 86.0352 104.887 85.5352C104.582 85.0273 104.43 84.4688 104.43 83.8594C104.43 83.3047 104.555 82.793 104.805 82.3242C105.062 81.8477 105.41 81.4531 105.848 81.1406C106.176 80.8984 106.621 80.6953 107.184 80.5312C107.754 80.3594 108.363 80.2734 109.012 80.2734C109.988 80.2734 110.844 80.4141 111.578 80.6953C112.32 80.9766 112.867 81.3594 113.219 81.8438C113.57 82.3203 113.812 82.9609 113.945 83.7656L111.883 84.0469C111.789 83.4062 111.516 82.9062 111.062 82.5469C110.617 82.1875 109.984 82.0078 109.164 82.0078C108.195 82.0078 107.504 82.168 107.09 82.4883C106.676 82.8086 106.469 83.1836 106.469 83.6133C106.469 83.8867 106.555 84.1328 106.727 84.3516C106.898 84.5781 107.168 84.7656 107.535 84.9141C107.746 84.9922 108.367 85.1719 109.398 85.4531C110.891 85.8516 111.93 86.1797 112.516 86.4375C113.109 86.6875 113.574 87.0547 113.91 87.5391C114.246 88.0234 114.414 88.625 114.414 89.3438C114.414 90.0469 114.207 90.7109 113.793 91.3359C113.387 91.9531 112.797 92.4336 112.023 92.7773C111.25 93.1133 110.375 93.2812 109.398 93.2812C107.781 93.2812 106.547 92.9453 105.695 92.2734C104.852 91.6016 104.312 90.6055 104.078 89.2852ZM121.527 91.1133L121.832 92.9766C121.238 93.1016 120.707 93.1641 120.238 93.1641C119.473 93.1641 118.879 93.043 118.457 92.8008C118.035 92.5586 117.738 92.2422 117.566 91.8516C117.395 91.4531 117.309 90.6211 117.309 89.3555V82.1953H115.762V80.5547H117.309V77.4727L119.406 76.207V80.5547H121.527V82.1953H119.406V89.4727C119.406 90.0742 119.441 90.4609 119.512 90.6328C119.59 90.8047 119.711 90.9414 119.875 91.043C120.047 91.1445 120.289 91.1953 120.602 91.1953C120.836 91.1953 121.145 91.168 121.527 91.1133ZM122.758 89.2852L124.844 88.957C124.961 89.793 125.285 90.4336 125.816 90.8789C126.355 91.3242 127.105 91.5469 128.066 91.5469C129.035 91.5469 129.754 91.3516 130.223 90.9609C130.691 90.5625 130.926 90.0977 130.926 89.5664C130.926 89.0898 130.719 88.7148 130.305 88.4414C130.016 88.2539 129.297 88.0156 128.148 87.7266C126.602 87.3359 125.527 87 124.926 86.7188C124.332 86.4297 123.879 86.0352 123.566 85.5352C123.262 85.0273 123.109 84.4688 123.109 83.8594C123.109 83.3047 123.234 82.793 123.484 82.3242C123.742 81.8477 124.09 81.4531 124.527 81.1406C124.855 80.8984 125.301 80.6953 125.863 80.5312C126.434 80.3594 127.043 80.2734 127.691 80.2734C128.668 80.2734 129.523 80.4141 130.258 80.6953C131 80.9766 131.547 81.3594 131.898 81.8438C132.25 82.3203 132.492 82.9609 132.625 83.7656L130.562 84.0469C130.469 83.4062 130.195 82.9062 129.742 82.5469C129.297 82.1875 128.664 82.0078 127.844 82.0078C126.875 82.0078 126.184 82.168 125.77 82.4883C125.355 82.8086 125.148 83.1836 125.148 83.6133C125.148 83.8867 125.234 84.1328 125.406 84.3516C125.578 84.5781 125.848 84.7656 126.215 84.9141C126.426 84.9922 127.047 85.1719 128.078 85.4531C129.57 85.8516 130.609 86.1797 131.195 86.4375C131.789 86.6875 132.254 87.0547 132.59 87.5391C132.926 88.0234 133.094 88.625 133.094 89.3438C133.094 90.0469 132.887 90.7109 132.473 91.3359C132.066 91.9531 131.477 92.4336 130.703 92.7773C129.93 93.1133 129.055 93.2812 128.078 93.2812C126.461 93.2812 125.227 92.9453 124.375 92.2734C123.531 91.6016 122.992 90.6055 122.758 89.2852Z" fill="white"/>
</svg>
