<svg width="211" height="170" viewBox="0 0 211 170" fill="none" xmlns="http://www.w3.org/2000/svg">
<rect width="211" height="170" rx="30" fill="#7A64FF"/>
<path d="M33.2812 70V57.1152H37.7197C38.7217 57.1152 39.4863 57.1768 40.0137 57.2998C40.752 57.4697 41.3818 57.7773 41.9033 58.2227C42.583 58.7969 43.0898 59.5322 43.4238 60.4287C43.7637 61.3193 43.9336 62.3389 43.9336 63.4873C43.9336 64.4658 43.8193 65.333 43.5908 66.0889C43.3623 66.8447 43.0693 67.4717 42.7119 67.9697C42.3545 68.4619 41.9619 68.8516 41.5342 69.1387C41.1123 69.4199 40.5996 69.6338 39.9961 69.7803C39.3984 69.9268 38.71 70 37.9307 70H33.2812ZM34.9863 68.4795H37.7373C38.5869 68.4795 39.252 68.4004 39.7324 68.2422C40.2188 68.084 40.6055 67.8613 40.8926 67.5742C41.2969 67.1699 41.6104 66.6279 41.833 65.9482C42.0615 65.2627 42.1758 64.4336 42.1758 63.4609C42.1758 62.1133 41.9531 61.0791 41.5078 60.3584C41.0684 59.6318 40.5322 59.1455 39.8994 58.8994C39.4424 58.7236 38.707 58.6357 37.6934 58.6357H34.9863V68.4795ZM52.4766 66.9941L54.1113 67.1963C53.8535 68.1514 53.376 68.8926 52.6787 69.4199C51.9814 69.9473 51.0908 70.2109 50.0068 70.2109C48.6416 70.2109 47.5576 69.792 46.7549 68.9541C45.958 68.1104 45.5596 66.9297 45.5596 65.4121C45.5596 63.8418 45.9639 62.623 46.7725 61.7559C47.5811 60.8887 48.6299 60.4551 49.9189 60.4551C51.167 60.4551 52.1865 60.8799 52.9775 61.7295C53.7686 62.5791 54.1641 63.7744 54.1641 65.3154C54.1641 65.4092 54.1611 65.5498 54.1553 65.7373H47.1943C47.2529 66.7627 47.543 67.5479 48.0645 68.0928C48.5859 68.6377 49.2363 68.9102 50.0156 68.9102C50.5957 68.9102 51.0908 68.7578 51.501 68.4531C51.9111 68.1484 52.2363 67.6621 52.4766 66.9941ZM47.2822 64.4365H52.4941C52.4238 63.6514 52.2246 63.0625 51.8965 62.6699C51.3926 62.0605 50.7393 61.7559 49.9365 61.7559C49.21 61.7559 48.5977 61.999 48.0996 62.4854C47.6074 62.9717 47.335 63.6221 47.2822 64.4365ZM55.4736 67.2139L57.0381 66.9678C57.126 67.5947 57.3691 68.0752 57.7676 68.4092C58.1719 68.7432 58.7344 68.9102 59.4551 68.9102C60.1816 68.9102 60.7207 68.7637 61.0723 68.4707C61.4238 68.1719 61.5996 67.8232 61.5996 67.4248C61.5996 67.0674 61.4443 66.7861 61.1338 66.5811C60.917 66.4404 60.3779 66.2617 59.5166 66.0449C58.3564 65.752 57.5508 65.5 57.0996 65.2891C56.6543 65.0723 56.3145 64.7764 56.0801 64.4014C55.8516 64.0205 55.7373 63.6016 55.7373 63.1445C55.7373 62.7285 55.8311 62.3447 56.0186 61.9932C56.2119 61.6357 56.4727 61.3398 56.8008 61.1055C57.0469 60.9238 57.3809 60.7715 57.8027 60.6484C58.2305 60.5195 58.6875 60.4551 59.1738 60.4551C59.9062 60.4551 60.5479 60.5605 61.0986 60.7715C61.6553 60.9824 62.0654 61.2695 62.3291 61.6328C62.5928 61.9902 62.7744 62.4707 62.874 63.0742L61.3271 63.2852C61.2568 62.8047 61.0518 62.4297 60.7119 62.1602C60.3779 61.8906 59.9033 61.7559 59.2881 61.7559C58.5615 61.7559 58.043 61.876 57.7324 62.1162C57.4219 62.3564 57.2666 62.6377 57.2666 62.96C57.2666 63.165 57.3311 63.3496 57.46 63.5137C57.5889 63.6836 57.791 63.8242 58.0664 63.9355C58.2246 63.9941 58.6904 64.1289 59.4639 64.3398C60.583 64.6387 61.3623 64.8848 61.8018 65.0781C62.2471 65.2656 62.5957 65.541 62.8477 65.9043C63.0996 66.2676 63.2256 66.7188 63.2256 67.2578C63.2256 67.7852 63.0703 68.2832 62.7598 68.752C62.4551 69.2148 62.0127 69.5752 61.4326 69.833C60.8525 70.085 60.1963 70.2109 59.4639 70.2109C58.251 70.2109 57.3252 69.959 56.6865 69.4551C56.0537 68.9512 55.6494 68.2041 55.4736 67.2139ZM65.1152 58.9346V57.1152H66.6973V58.9346H65.1152ZM65.1152 70V60.666H66.6973V70H65.1152ZM68.8242 70.7734L70.3623 71.002C70.4268 71.4766 70.6055 71.8223 70.8984 72.0391C71.291 72.332 71.8271 72.4785 72.5068 72.4785C73.2393 72.4785 73.8047 72.332 74.2031 72.0391C74.6016 71.7461 74.8711 71.3359 75.0117 70.8086C75.0938 70.4863 75.1318 69.8096 75.126 68.7783C74.4346 69.5928 73.5732 70 72.542 70C71.2588 70 70.2656 69.5371 69.5625 68.6113C68.8594 67.6855 68.5078 66.5752 68.5078 65.2803C68.5078 64.3896 68.6689 63.5693 68.9912 62.8193C69.3135 62.0635 69.7793 61.4805 70.3887 61.0703C71.0039 60.6602 71.7246 60.4551 72.5508 60.4551C73.6523 60.4551 74.5605 60.9004 75.2754 61.791V60.666H76.7344V68.7344C76.7344 70.1875 76.585 71.2158 76.2861 71.8193C75.9932 72.4287 75.5244 72.9092 74.8799 73.2607C74.2412 73.6123 73.4531 73.7881 72.5156 73.7881C71.4023 73.7881 70.5029 73.5361 69.8174 73.0322C69.1318 72.5342 68.8008 71.7812 68.8242 70.7734ZM70.1338 65.166C70.1338 66.3906 70.377 67.2842 70.8633 67.8467C71.3496 68.4092 71.959 68.6904 72.6914 68.6904C73.418 68.6904 74.0273 68.4121 74.5195 67.8555C75.0117 67.293 75.2578 66.4141 75.2578 65.2188C75.2578 64.0762 75.0029 63.2148 74.4932 62.6348C73.9893 62.0547 73.3799 61.7646 72.665 61.7646C71.9619 61.7646 71.3643 62.0518 70.8721 62.626C70.3799 63.1943 70.1338 64.041 70.1338 65.166ZM79.1338 70V60.666H80.5576V61.9932C81.2432 60.9678 82.2334 60.4551 83.5283 60.4551C84.0908 60.4551 84.6064 60.5576 85.0752 60.7627C85.5498 60.9619 85.9043 61.2256 86.1387 61.5537C86.373 61.8818 86.5371 62.2715 86.6309 62.7227C86.6895 63.0156 86.7188 63.5283 86.7188 64.2607V70H85.1367V64.3223C85.1367 63.6777 85.0752 63.1973 84.9521 62.8809C84.8291 62.5586 84.6094 62.3037 84.293 62.1162C83.9824 61.9229 83.6162 61.8262 83.1943 61.8262C82.5205 61.8262 81.9375 62.04 81.4453 62.4678C80.959 62.8955 80.7158 63.707 80.7158 64.9023V70H79.1338ZM95.543 66.9941L97.1777 67.1963C96.9199 68.1514 96.4424 68.8926 95.7451 69.4199C95.0479 69.9473 94.1572 70.2109 93.0732 70.2109C91.708 70.2109 90.624 69.792 89.8213 68.9541C89.0244 68.1104 88.626 66.9297 88.626 65.4121C88.626 63.8418 89.0303 62.623 89.8389 61.7559C90.6475 60.8887 91.6963 60.4551 92.9854 60.4551C94.2334 60.4551 95.2529 60.8799 96.0439 61.7295C96.835 62.5791 97.2305 63.7744 97.2305 65.3154C97.2305 65.4092 97.2275 65.5498 97.2217 65.7373H90.2607C90.3193 66.7627 90.6094 67.5479 91.1309 68.0928C91.6523 68.6377 92.3027 68.9102 93.082 68.9102C93.6621 68.9102 94.1572 68.7578 94.5674 68.4531C94.9775 68.1484 95.3027 67.6621 95.543 66.9941ZM90.3486 64.4365H95.5605C95.4902 63.6514 95.291 63.0625 94.9629 62.6699C94.459 62.0605 93.8057 61.7559 93.0029 61.7559C92.2764 61.7559 91.6641 61.999 91.166 62.4854C90.6738 62.9717 90.4014 63.6221 90.3486 64.4365ZM105.229 70V68.8223C104.637 69.748 103.767 70.2109 102.618 70.2109C101.874 70.2109 101.188 70.0059 100.562 69.5957C99.9404 69.1855 99.457 68.6143 99.1113 67.8818C98.7715 67.1436 98.6016 66.2969 98.6016 65.3418C98.6016 64.4102 98.7568 63.5664 99.0674 62.8105C99.3779 62.0488 99.8438 61.4658 100.465 61.0615C101.086 60.6572 101.78 60.4551 102.548 60.4551C103.11 60.4551 103.611 60.5752 104.051 60.8154C104.49 61.0498 104.848 61.3574 105.123 61.7383V57.1152H106.696V70H105.229ZM100.228 65.3418C100.228 66.5371 100.479 67.4307 100.983 68.0225C101.487 68.6143 102.082 68.9102 102.768 68.9102C103.459 68.9102 104.045 68.6289 104.525 68.0664C105.012 67.498 105.255 66.6338 105.255 65.4736C105.255 64.1963 105.009 63.2588 104.517 62.6611C104.024 62.0635 103.418 61.7646 102.697 61.7646C101.994 61.7646 101.405 62.0518 100.931 62.626C100.462 63.2002 100.228 64.1055 100.228 65.3418ZM121.567 68.4795C121.046 69.0596 120.478 69.4961 119.862 69.7891C119.247 70.0762 118.582 70.2197 117.867 70.2197C116.549 70.2197 115.503 69.7744 114.729 68.8838C114.103 68.1572 113.789 67.3457 113.789 66.4492C113.789 65.6523 114.044 64.9346 114.554 64.2959C115.069 63.6514 115.837 63.0859 116.856 62.5996C116.276 61.9316 115.89 61.3896 115.696 60.9736C115.503 60.5576 115.406 60.1562 115.406 59.7695C115.406 58.9961 115.708 58.3252 116.312 57.7568C116.921 57.1826 117.686 56.8955 118.605 56.8955C119.484 56.8955 120.202 57.165 120.759 57.7041C121.321 58.2432 121.603 58.8906 121.603 59.6465C121.603 60.8711 120.791 61.917 119.168 62.7842L121.479 65.7285C121.743 65.2129 121.948 64.6152 122.095 63.9355L123.738 64.2871C123.457 65.4121 123.076 66.3379 122.596 67.0645C123.188 67.8496 123.858 68.5088 124.608 69.042L123.545 70.2988C122.906 69.8887 122.247 69.2822 121.567 68.4795ZM118.351 61.7646C119.036 61.3604 119.479 61.0059 119.678 60.7012C119.883 60.3965 119.985 60.0596 119.985 59.6904C119.985 59.251 119.845 58.8936 119.563 58.6182C119.288 58.3369 118.942 58.1963 118.526 58.1963C118.099 58.1963 117.741 58.334 117.454 58.6094C117.173 58.8848 117.032 59.2217 117.032 59.6201C117.032 59.8193 117.082 60.0303 117.182 60.2529C117.287 60.4697 117.442 60.7012 117.647 60.9473L118.351 61.7646ZM120.574 67.2314L117.674 63.6367C116.818 64.1465 116.241 64.6211 115.942 65.0605C115.644 65.4941 115.494 65.9248 115.494 66.3525C115.494 66.874 115.702 67.416 116.118 67.9785C116.534 68.541 117.123 68.8223 117.885 68.8223C118.359 68.8223 118.849 68.6758 119.353 68.3828C119.862 68.084 120.27 67.7002 120.574 67.2314ZM131.183 70V57.1152H132.765V70H131.183ZM141.615 66.9941L143.25 67.1963C142.992 68.1514 142.515 68.8926 141.817 69.4199C141.12 69.9473 140.229 70.2109 139.146 70.2109C137.78 70.2109 136.696 69.792 135.894 68.9541C135.097 68.1104 134.698 66.9297 134.698 65.4121C134.698 63.8418 135.103 62.623 135.911 61.7559C136.72 60.8887 137.769 60.4551 139.058 60.4551C140.306 60.4551 141.325 60.8799 142.116 61.7295C142.907 62.5791 143.303 63.7744 143.303 65.3154C143.303 65.4092 143.3 65.5498 143.294 65.7373H136.333C136.392 66.7627 136.682 67.5479 137.203 68.0928C137.725 68.6377 138.375 68.9102 139.154 68.9102C139.734 68.9102 140.229 68.7578 140.64 68.4531C141.05 68.1484 141.375 67.6621 141.615 66.9941ZM136.421 64.4365H141.633C141.562 63.6514 141.363 63.0625 141.035 62.6699C140.531 62.0605 139.878 61.7559 139.075 61.7559C138.349 61.7559 137.736 61.999 137.238 62.4854C136.746 62.9717 136.474 63.6221 136.421 64.4365ZM151.301 70V68.8223C150.709 69.748 149.839 70.2109 148.69 70.2109C147.946 70.2109 147.261 70.0059 146.634 69.5957C146.013 69.1855 145.529 68.6143 145.184 67.8818C144.844 67.1436 144.674 66.2969 144.674 65.3418C144.674 64.4102 144.829 63.5664 145.14 62.8105C145.45 62.0488 145.916 61.4658 146.537 61.0615C147.158 60.6572 147.853 60.4551 148.62 60.4551C149.183 60.4551 149.684 60.5752 150.123 60.8154C150.562 61.0498 150.92 61.3574 151.195 61.7383V57.1152H152.769V70H151.301ZM146.3 65.3418C146.3 66.5371 146.552 67.4307 147.056 68.0225C147.56 68.6143 148.154 68.9102 148.84 68.9102C149.531 68.9102 150.117 68.6289 150.598 68.0664C151.084 67.498 151.327 66.6338 151.327 65.4736C151.327 64.1963 151.081 63.2588 150.589 62.6611C150.097 62.0635 149.49 61.7646 148.77 61.7646C148.066 61.7646 147.478 62.0518 147.003 62.626C146.534 63.2002 146.3 64.1055 146.3 65.3418ZM161.733 70H160.266V57.1152H161.848V61.7119C162.516 60.874 163.368 60.4551 164.405 60.4551C164.979 60.4551 165.521 60.5723 166.031 60.8066C166.547 61.0352 166.969 61.3604 167.297 61.7822C167.631 62.1982 167.892 62.7021 168.079 63.2939C168.267 63.8857 168.36 64.5186 168.36 65.1924C168.36 66.792 167.965 68.0283 167.174 68.9014C166.383 69.7744 165.434 70.2109 164.326 70.2109C163.225 70.2109 162.36 69.751 161.733 68.8311V70ZM161.716 65.2627C161.716 66.3818 161.868 67.1904 162.173 67.6885C162.671 68.5029 163.345 68.9102 164.194 68.9102C164.886 68.9102 165.483 68.6113 165.987 68.0137C166.491 67.4102 166.743 66.5137 166.743 65.3242C166.743 64.1055 166.5 63.2061 166.014 62.626C165.533 62.0459 164.95 61.7559 164.265 61.7559C163.573 61.7559 162.976 62.0576 162.472 62.6611C161.968 63.2588 161.716 64.126 161.716 65.2627ZM170.224 73.5947L170.048 72.1094C170.394 72.2031 170.695 72.25 170.953 72.25C171.305 72.25 171.586 72.1914 171.797 72.0742C172.008 71.957 172.181 71.793 172.315 71.582C172.415 71.4238 172.576 71.0312 172.799 70.4043C172.828 70.3164 172.875 70.1875 172.939 70.0176L169.397 60.666H171.103L173.045 66.0713C173.297 66.7568 173.522 67.4775 173.722 68.2334C173.903 67.5068 174.12 66.7979 174.372 66.1064L176.367 60.666H177.949L174.398 70.1582C174.018 71.1836 173.722 71.8896 173.511 72.2764C173.229 72.7979 172.907 73.1787 172.544 73.4189C172.181 73.665 171.747 73.7881 171.243 73.7881C170.938 73.7881 170.599 73.7236 170.224 73.5947ZM30.0996 79.9346V78.1152H31.6816V79.9346H30.0996ZM30.0996 91V81.666H31.6816V91H30.0996ZM34.0986 91V81.666H35.5225V82.9932C36.208 81.9678 37.1982 81.4551 38.4932 81.4551C39.0557 81.4551 39.5713 81.5576 40.04 81.7627C40.5146 81.9619 40.8691 82.2256 41.1035 82.5537C41.3379 82.8818 41.502 83.2715 41.5957 83.7227C41.6543 84.0156 41.6836 84.5283 41.6836 85.2607V91H40.1016V85.3223C40.1016 84.6777 40.04 84.1973 39.917 83.8809C39.7939 83.5586 39.5742 83.3037 39.2578 83.1162C38.9473 82.9229 38.5811 82.8262 38.1592 82.8262C37.4854 82.8262 36.9023 83.04 36.4102 83.4678C35.9238 83.8955 35.6807 84.707 35.6807 85.9023V91H34.0986ZM50.1738 91V89.8223C49.582 90.748 48.7119 91.2109 47.5635 91.2109C46.8193 91.2109 46.1338 91.0059 45.5068 90.5957C44.8857 90.1855 44.4023 89.6143 44.0566 88.8818C43.7168 88.1436 43.5469 87.2969 43.5469 86.3418C43.5469 85.4102 43.7021 84.5664 44.0127 83.8105C44.3232 83.0488 44.7891 82.4658 45.4102 82.0615C46.0312 81.6572 46.7256 81.4551 47.4932 81.4551C48.0557 81.4551 48.5566 81.5752 48.9961 81.8154C49.4355 82.0498 49.793 82.3574 50.0684 82.7383V78.1152H51.6416V91H50.1738ZM45.1729 86.3418C45.1729 87.5371 45.4248 88.4307 45.9287 89.0225C46.4326 89.6143 47.0273 89.9102 47.7129 89.9102C48.4043 89.9102 48.9902 89.6289 49.4707 89.0664C49.957 88.498 50.2002 87.6338 50.2002 86.4736C50.2002 85.1963 49.9541 84.2588 49.4619 83.6611C48.9697 83.0635 48.3633 82.7646 47.6426 82.7646C46.9395 82.7646 46.3506 83.0518 45.876 83.626C45.4072 84.2002 45.1729 85.1055 45.1729 86.3418ZM60.2549 91V89.6289C59.5283 90.6836 58.541 91.2109 57.293 91.2109C56.7422 91.2109 56.2266 91.1055 55.7461 90.8945C55.2715 90.6836 54.917 90.4199 54.6826 90.1035C54.4541 89.7812 54.293 89.3887 54.1992 88.9258C54.1348 88.6152 54.1025 88.123 54.1025 87.4492V81.666H55.6846V86.8428C55.6846 87.6689 55.7168 88.2256 55.7812 88.5127C55.8809 88.9287 56.0918 89.2568 56.4141 89.4971C56.7363 89.7314 57.1348 89.8486 57.6094 89.8486C58.084 89.8486 58.5293 89.7285 58.9453 89.4883C59.3613 89.2422 59.6543 88.9111 59.8242 88.4951C60 88.0732 60.0879 87.4639 60.0879 86.667V81.666H61.6699V91H60.2549ZM63.5244 88.2139L65.0889 87.9678C65.1768 88.5947 65.4199 89.0752 65.8184 89.4092C66.2227 89.7432 66.7852 89.9102 67.5059 89.9102C68.2324 89.9102 68.7715 89.7637 69.123 89.4707C69.4746 89.1719 69.6504 88.8232 69.6504 88.4248C69.6504 88.0674 69.4951 87.7861 69.1846 87.5811C68.9678 87.4404 68.4287 87.2617 67.5674 87.0449C66.4072 86.752 65.6016 86.5 65.1504 86.2891C64.7051 86.0723 64.3652 85.7764 64.1309 85.4014C63.9023 85.0205 63.7881 84.6016 63.7881 84.1445C63.7881 83.7285 63.8818 83.3447 64.0693 82.9932C64.2627 82.6357 64.5234 82.3398 64.8516 82.1055C65.0977 81.9238 65.4316 81.7715 65.8535 81.6484C66.2812 81.5195 66.7383 81.4551 67.2246 81.4551C67.957 81.4551 68.5986 81.5605 69.1494 81.7715C69.7061 81.9824 70.1162 82.2695 70.3799 82.6328C70.6436 82.9902 70.8252 83.4707 70.9248 84.0742L69.3779 84.2852C69.3076 83.8047 69.1025 83.4297 68.7627 83.1602C68.4287 82.8906 67.9541 82.7559 67.3389 82.7559C66.6123 82.7559 66.0938 82.876 65.7832 83.1162C65.4727 83.3564 65.3174 83.6377 65.3174 83.96C65.3174 84.165 65.3818 84.3496 65.5107 84.5137C65.6396 84.6836 65.8418 84.8242 66.1172 84.9355C66.2754 84.9941 66.7412 85.1289 67.5146 85.3398C68.6338 85.6387 69.4131 85.8848 69.8525 86.0781C70.2979 86.2656 70.6465 86.541 70.8984 86.9043C71.1504 87.2676 71.2764 87.7188 71.2764 88.2578C71.2764 88.7852 71.1211 89.2832 70.8105 89.752C70.5059 90.2148 70.0635 90.5752 69.4834 90.833C68.9033 91.085 68.2471 91.2109 67.5146 91.2109C66.3018 91.2109 65.376 90.959 64.7373 90.4551C64.1045 89.9512 63.7002 89.2041 63.5244 88.2139ZM76.6113 89.585L76.8398 90.9824C76.3945 91.0762 75.9961 91.123 75.6445 91.123C75.0703 91.123 74.625 91.0322 74.3086 90.8506C73.9922 90.6689 73.7695 90.4316 73.6406 90.1387C73.5117 89.8398 73.4473 89.2158 73.4473 88.2666V82.8965H72.2871V81.666H73.4473V79.3545L75.0205 78.4053V81.666H76.6113V82.8965H75.0205V88.3545C75.0205 88.8057 75.0469 89.0957 75.0996 89.2246C75.1582 89.3535 75.249 89.4561 75.3721 89.5322C75.501 89.6084 75.6826 89.6465 75.917 89.6465C76.0928 89.6465 76.3242 89.626 76.6113 89.585ZM78.1494 91V81.666H79.5732V83.0811C79.9365 82.4189 80.2705 81.9824 80.5752 81.7715C80.8857 81.5605 81.2256 81.4551 81.5947 81.4551C82.1279 81.4551 82.6699 81.625 83.2207 81.9648L82.6758 83.4326C82.2891 83.2041 81.9023 83.0898 81.5156 83.0898C81.1699 83.0898 80.8594 83.1953 80.584 83.4062C80.3086 83.6113 80.1123 83.8984 79.9951 84.2676C79.8193 84.8301 79.7314 85.4453 79.7314 86.1133V91H78.1494ZM84.0908 94.5947L83.915 93.1094C84.2607 93.2031 84.5625 93.25 84.8203 93.25C85.1719 93.25 85.4531 93.1914 85.6641 93.0742C85.875 92.957 86.0479 92.793 86.1826 92.582C86.2822 92.4238 86.4434 92.0312 86.666 91.4043C86.6953 91.3164 86.7422 91.1875 86.8066 91.0176L83.2646 81.666H84.9697L86.9121 87.0713C87.1641 87.7568 87.3896 88.4775 87.5889 89.2334C87.7705 88.5068 87.9873 87.7979 88.2393 87.1064L90.2344 81.666H91.8164L88.2656 91.1582C87.8848 92.1836 87.5889 92.8896 87.3779 93.2764C87.0967 93.7979 86.7744 94.1787 86.4111 94.4189C86.0479 94.665 85.6143 94.7881 85.1104 94.7881C84.8057 94.7881 84.4658 94.7236 84.0908 94.5947ZM104.561 87.9941L106.195 88.1963C105.938 89.1514 105.46 89.8926 104.763 90.4199C104.065 90.9473 103.175 91.2109 102.091 91.2109C100.726 91.2109 99.6416 90.792 98.8389 89.9541C98.042 89.1104 97.6436 87.9297 97.6436 86.4121C97.6436 84.8418 98.0479 83.623 98.8564 82.7559C99.665 81.8887 100.714 81.4551 102.003 81.4551C103.251 81.4551 104.271 81.8799 105.062 82.7295C105.853 83.5791 106.248 84.7744 106.248 86.3154C106.248 86.4092 106.245 86.5498 106.239 86.7373H99.2783C99.3369 87.7627 99.627 88.5479 100.148 89.0928C100.67 89.6377 101.32 89.9102 102.1 89.9102C102.68 89.9102 103.175 89.7578 103.585 89.4531C103.995 89.1484 104.32 88.6621 104.561 87.9941ZM99.3662 85.4365H104.578C104.508 84.6514 104.309 84.0625 103.98 83.6699C103.477 83.0605 102.823 82.7559 102.021 82.7559C101.294 82.7559 100.682 82.999 100.184 83.4854C99.6914 83.9717 99.4189 84.6221 99.3662 85.4365ZM107.136 91L110.546 86.1484L107.391 81.666H109.368L110.801 83.8545C111.07 84.2705 111.287 84.6191 111.451 84.9004C111.709 84.5137 111.946 84.1709 112.163 83.8721L113.736 81.666H115.626L112.4 86.0605L115.872 91H113.93L112.014 88.0996L111.504 87.3174L109.052 91H107.136ZM117.19 94.5771V81.666H118.632V82.8789C118.972 82.4043 119.355 82.0498 119.783 81.8154C120.211 81.5752 120.729 81.4551 121.339 81.4551C122.136 81.4551 122.839 81.6602 123.448 82.0703C124.058 82.4805 124.518 83.0605 124.828 83.8105C125.139 84.5547 125.294 85.3721 125.294 86.2627C125.294 87.2178 125.121 88.0791 124.775 88.8467C124.436 89.6084 123.938 90.1943 123.281 90.6045C122.631 91.0088 121.945 91.2109 121.225 91.2109C120.697 91.2109 120.223 91.0996 119.801 90.877C119.385 90.6543 119.042 90.373 118.772 90.0332V94.5771H117.19ZM118.623 86.3857C118.623 87.5869 118.866 88.4746 119.353 89.0488C119.839 89.623 120.428 89.9102 121.119 89.9102C121.822 89.9102 122.423 89.6143 122.921 89.0225C123.425 88.4248 123.677 87.502 123.677 86.2539C123.677 85.0645 123.431 84.1738 122.938 83.582C122.452 82.9902 121.869 82.6943 121.189 82.6943C120.516 82.6943 119.918 83.0107 119.396 83.6436C118.881 84.2705 118.623 85.1846 118.623 86.3857ZM133.6 87.9941L135.234 88.1963C134.977 89.1514 134.499 89.8926 133.802 90.4199C133.104 90.9473 132.214 91.2109 131.13 91.2109C129.765 91.2109 128.681 90.792 127.878 89.9541C127.081 89.1104 126.683 87.9297 126.683 86.4121C126.683 84.8418 127.087 83.623 127.896 82.7559C128.704 81.8887 129.753 81.4551 131.042 81.4551C132.29 81.4551 133.31 81.8799 134.101 82.7295C134.892 83.5791 135.287 84.7744 135.287 86.3154C135.287 86.4092 135.284 86.5498 135.278 86.7373H128.317C128.376 87.7627 128.666 88.5479 129.188 89.0928C129.709 89.6377 130.359 89.9102 131.139 89.9102C131.719 89.9102 132.214 89.7578 132.624 89.4531C133.034 89.1484 133.359 88.6621 133.6 87.9941ZM128.405 85.4365H133.617C133.547 84.6514 133.348 84.0625 133.02 83.6699C132.516 83.0605 131.862 82.7559 131.06 82.7559C130.333 82.7559 129.721 82.999 129.223 83.4854C128.73 83.9717 128.458 84.6221 128.405 85.4365ZM137.212 91V81.666H138.636V83.0811C138.999 82.4189 139.333 81.9824 139.638 81.7715C139.948 81.5605 140.288 81.4551 140.657 81.4551C141.19 81.4551 141.732 81.625 142.283 81.9648L141.738 83.4326C141.352 83.2041 140.965 83.0898 140.578 83.0898C140.232 83.0898 139.922 83.1953 139.646 83.4062C139.371 83.6113 139.175 83.8984 139.058 84.2676C138.882 84.8301 138.794 85.4453 138.794 86.1133V91H137.212ZM146.678 89.585L146.906 90.9824C146.461 91.0762 146.062 91.123 145.711 91.123C145.137 91.123 144.691 91.0322 144.375 90.8506C144.059 90.6689 143.836 90.4316 143.707 90.1387C143.578 89.8398 143.514 89.2158 143.514 88.2666V82.8965H142.354V81.666H143.514V79.3545L145.087 78.4053V81.666H146.678V82.8965H145.087V88.3545C145.087 88.8057 145.113 89.0957 145.166 89.2246C145.225 89.3535 145.315 89.4561 145.438 89.5322C145.567 89.6084 145.749 89.6465 145.983 89.6465C146.159 89.6465 146.391 89.626 146.678 89.585ZM147.601 88.2139L149.165 87.9678C149.253 88.5947 149.496 89.0752 149.895 89.4092C150.299 89.7432 150.861 89.9102 151.582 89.9102C152.309 89.9102 152.848 89.7637 153.199 89.4707C153.551 89.1719 153.727 88.8232 153.727 88.4248C153.727 88.0674 153.571 87.7861 153.261 87.5811C153.044 87.4404 152.505 87.2617 151.644 87.0449C150.483 86.752 149.678 86.5 149.227 86.2891C148.781 86.0723 148.441 85.7764 148.207 85.4014C147.979 85.0205 147.864 84.6016 147.864 84.1445C147.864 83.7285 147.958 83.3447 148.146 82.9932C148.339 82.6357 148.6 82.3398 148.928 82.1055C149.174 81.9238 149.508 81.7715 149.93 81.6484C150.357 81.5195 150.814 81.4551 151.301 81.4551C152.033 81.4551 152.675 81.5605 153.226 81.7715C153.782 81.9824 154.192 82.2695 154.456 82.6328C154.72 82.9902 154.901 83.4707 155.001 84.0742L153.454 84.2852C153.384 83.8047 153.179 83.4297 152.839 83.1602C152.505 82.8906 152.03 82.7559 151.415 82.7559C150.688 82.7559 150.17 82.876 149.859 83.1162C149.549 83.3564 149.394 83.6377 149.394 83.96C149.394 84.165 149.458 84.3496 149.587 84.5137C149.716 84.6836 149.918 84.8242 150.193 84.9355C150.352 84.9941 150.817 85.1289 151.591 85.3398C152.71 85.6387 153.489 85.8848 153.929 86.0781C154.374 86.2656 154.723 86.541 154.975 86.9043C155.227 87.2676 155.353 87.7188 155.353 88.2578C155.353 88.7852 155.197 89.2832 154.887 89.752C154.582 90.2148 154.14 90.5752 153.56 90.833C152.979 91.085 152.323 91.2109 151.591 91.2109C150.378 91.2109 149.452 90.959 148.813 90.4551C148.181 89.9512 147.776 89.2041 147.601 88.2139ZM161.654 86.333C161.654 84.6045 162.135 83.3242 163.096 82.4922C163.898 81.8008 164.877 81.4551 166.031 81.4551C167.314 81.4551 168.363 81.877 169.178 82.7207C169.992 83.5586 170.399 84.7188 170.399 86.2012C170.399 87.4023 170.218 88.3486 169.854 89.04C169.497 89.7256 168.973 90.2588 168.281 90.6396C167.596 91.0205 166.846 91.2109 166.031 91.2109C164.725 91.2109 163.667 90.792 162.858 89.9541C162.056 89.1162 161.654 87.9092 161.654 86.333ZM163.28 86.333C163.28 87.5283 163.541 88.4248 164.062 89.0225C164.584 89.6143 165.24 89.9102 166.031 89.9102C166.816 89.9102 167.47 89.6113 167.991 89.0137C168.513 88.416 168.773 87.5049 168.773 86.2803C168.773 85.126 168.51 84.2529 167.982 83.6611C167.461 83.0635 166.811 82.7646 166.031 82.7646C165.24 82.7646 164.584 83.0605 164.062 83.6523C163.541 84.2441 163.28 85.1377 163.28 86.333ZM172.263 91V81.666H173.687V82.9932C174.372 81.9678 175.362 81.4551 176.657 81.4551C177.22 81.4551 177.735 81.5576 178.204 81.7627C178.679 81.9619 179.033 82.2256 179.268 82.5537C179.502 82.8818 179.666 83.2715 179.76 83.7227C179.818 84.0156 179.848 84.5283 179.848 85.2607V91H178.266V85.3223C178.266 84.6777 178.204 84.1973 178.081 83.8809C177.958 83.5586 177.738 83.3037 177.422 83.1162C177.111 82.9229 176.745 82.8262 176.323 82.8262C175.649 82.8262 175.066 83.04 174.574 83.4678C174.088 83.8955 173.845 84.707 173.845 85.9023V91H172.263ZM77.5166 112V103.896H76.1191V102.666H77.5166V101.673C77.5166 101.046 77.5723 100.58 77.6836 100.275C77.8359 99.8652 78.1025 99.5342 78.4834 99.2822C78.8701 99.0244 79.4092 98.8955 80.1006 98.8955C80.5459 98.8955 81.0381 98.9482 81.5771 99.0537L81.3398 100.434C81.0117 100.375 80.7012 100.346 80.4082 100.346C79.9277 100.346 79.5879 100.448 79.3887 100.653C79.1895 100.858 79.0898 101.242 79.0898 101.805V102.666H80.9092V103.896H79.0898V112H77.5166ZM82.1572 100.935V99.1152H83.7393V100.935H82.1572ZM82.1572 112V102.666H83.7393V112H82.1572ZM86.1562 112V102.666H87.5801V103.993C88.2656 102.968 89.2559 102.455 90.5508 102.455C91.1133 102.455 91.6289 102.558 92.0977 102.763C92.5723 102.962 92.9268 103.226 93.1611 103.554C93.3955 103.882 93.5596 104.271 93.6533 104.723C93.7119 105.016 93.7412 105.528 93.7412 106.261V112H92.1592V106.322C92.1592 105.678 92.0977 105.197 91.9746 104.881C91.8516 104.559 91.6318 104.304 91.3154 104.116C91.0049 103.923 90.6387 103.826 90.2168 103.826C89.543 103.826 88.96 104.04 88.4678 104.468C87.9814 104.896 87.7383 105.707 87.7383 106.902V112H86.1562ZM102.267 110.849C101.681 111.347 101.115 111.698 100.57 111.903C100.031 112.108 99.4512 112.211 98.8301 112.211C97.8047 112.211 97.0166 111.962 96.4658 111.464C95.915 110.96 95.6396 110.318 95.6396 109.539C95.6396 109.082 95.7422 108.666 95.9473 108.291C96.1582 107.91 96.4307 107.605 96.7646 107.377C97.1045 107.148 97.4854 106.976 97.9072 106.858C98.2178 106.776 98.6865 106.697 99.3135 106.621C100.591 106.469 101.531 106.287 102.135 106.076C102.141 105.859 102.144 105.722 102.144 105.663C102.144 105.019 101.994 104.564 101.695 104.301C101.291 103.943 100.69 103.765 99.8936 103.765C99.1494 103.765 98.5986 103.896 98.2412 104.16C97.8896 104.418 97.6289 104.878 97.459 105.54L95.9121 105.329C96.0527 104.667 96.2842 104.134 96.6064 103.729C96.9287 103.319 97.3945 103.006 98.0039 102.789C98.6133 102.566 99.3193 102.455 100.122 102.455C100.919 102.455 101.566 102.549 102.064 102.736C102.562 102.924 102.929 103.161 103.163 103.448C103.397 103.729 103.562 104.087 103.655 104.521C103.708 104.79 103.734 105.276 103.734 105.979V108.089C103.734 109.56 103.767 110.491 103.831 110.884C103.901 111.271 104.036 111.643 104.235 112H102.583C102.419 111.672 102.313 111.288 102.267 110.849ZM102.135 107.315C101.561 107.55 100.699 107.749 99.5508 107.913C98.9004 108.007 98.4404 108.112 98.1709 108.229C97.9014 108.347 97.6934 108.52 97.5469 108.748C97.4004 108.971 97.3271 109.22 97.3271 109.495C97.3271 109.917 97.4854 110.269 97.8018 110.55C98.124 110.831 98.5928 110.972 99.208 110.972C99.8174 110.972 100.359 110.84 100.834 110.576C101.309 110.307 101.657 109.94 101.88 109.478C102.05 109.12 102.135 108.593 102.135 107.896V107.315ZM106.195 112V102.666H107.619V103.993C108.305 102.968 109.295 102.455 110.59 102.455C111.152 102.455 111.668 102.558 112.137 102.763C112.611 102.962 112.966 103.226 113.2 103.554C113.435 103.882 113.599 104.271 113.692 104.723C113.751 105.016 113.78 105.528 113.78 106.261V112H112.198V106.322C112.198 105.678 112.137 105.197 112.014 104.881C111.891 104.559 111.671 104.304 111.354 104.116C111.044 103.923 110.678 103.826 110.256 103.826C109.582 103.826 108.999 104.04 108.507 104.468C108.021 104.896 107.777 105.707 107.777 106.902V112H106.195ZM122.306 108.581L123.861 108.783C123.691 109.855 123.255 110.696 122.552 111.306C121.854 111.909 120.996 112.211 119.977 112.211C118.699 112.211 117.671 111.795 116.892 110.963C116.118 110.125 115.731 108.927 115.731 107.368C115.731 106.36 115.898 105.479 116.232 104.723C116.566 103.967 117.073 103.401 117.753 103.026C118.438 102.646 119.183 102.455 119.985 102.455C120.999 102.455 121.828 102.713 122.473 103.229C123.117 103.738 123.53 104.465 123.712 105.408L122.174 105.646C122.027 105.019 121.767 104.547 121.392 104.23C121.022 103.914 120.574 103.756 120.047 103.756C119.25 103.756 118.603 104.043 118.104 104.617C117.606 105.186 117.357 106.088 117.357 107.324C117.357 108.578 117.598 109.489 118.078 110.058C118.559 110.626 119.186 110.91 119.959 110.91C120.58 110.91 121.099 110.72 121.515 110.339C121.931 109.958 122.194 109.372 122.306 108.581ZM131.604 108.994L133.239 109.196C132.981 110.151 132.504 110.893 131.807 111.42C131.109 111.947 130.219 112.211 129.135 112.211C127.77 112.211 126.686 111.792 125.883 110.954C125.086 110.11 124.688 108.93 124.688 107.412C124.688 105.842 125.092 104.623 125.9 103.756C126.709 102.889 127.758 102.455 129.047 102.455C130.295 102.455 131.314 102.88 132.105 103.729C132.896 104.579 133.292 105.774 133.292 107.315C133.292 107.409 133.289 107.55 133.283 107.737H126.322C126.381 108.763 126.671 109.548 127.192 110.093C127.714 110.638 128.364 110.91 129.144 110.91C129.724 110.91 130.219 110.758 130.629 110.453C131.039 110.148 131.364 109.662 131.604 108.994ZM126.41 106.437H131.622C131.552 105.651 131.353 105.062 131.024 104.67C130.521 104.061 129.867 103.756 129.064 103.756C128.338 103.756 127.726 103.999 127.228 104.485C126.735 104.972 126.463 105.622 126.41 106.437Z" fill="white"/>
</svg>
