<svg width="211" height="170" viewBox="0 0 211 170" fill="none" xmlns="http://www.w3.org/2000/svg">
<rect width="211" height="170" rx="30" fill="#5569FF"/>
<path d="M50.0234 79L45.4648 61.8203H47.7969L50.4102 73.082C50.6914 74.2617 50.9336 75.4336 51.1367 76.5977C51.5742 74.7617 51.832 73.7031 51.9102 73.4219L55.1797 61.8203H57.9219L60.3828 70.5156C61 72.6719 61.4453 74.6992 61.7188 76.5977C61.9375 75.5117 62.2227 74.2656 62.5742 72.8594L65.2695 61.8203H67.5547L62.8438 79H60.6523L57.0312 65.9102C56.7266 64.8164 56.5469 64.1445 56.4922 63.8945C56.3125 64.6836 56.1445 65.3555 55.9883 65.9102L52.3438 79H50.0234ZM68.1875 72.7773C68.1875 70.4727 68.8281 68.7656 70.1094 67.6562C71.1797 66.7344 72.4844 66.2734 74.0234 66.2734C75.7344 66.2734 77.1328 66.8359 78.2188 67.9609C79.3047 69.0781 79.8477 70.625 79.8477 72.6016C79.8477 74.2031 79.6055 75.4648 79.1211 76.3867C78.6445 77.3008 77.9453 78.0117 77.0234 78.5195C76.1094 79.0273 75.1094 79.2812 74.0234 79.2812C72.2812 79.2812 70.8711 78.7227 69.793 77.6055C68.7227 76.4883 68.1875 74.8789 68.1875 72.7773ZM70.3555 72.7773C70.3555 74.3711 70.7031 75.5664 71.3984 76.3633C72.0938 77.1523 72.9688 77.5469 74.0234 77.5469C75.0703 77.5469 75.9414 77.1484 76.6367 76.3516C77.332 75.5547 77.6797 74.3398 77.6797 72.707C77.6797 71.168 77.3281 70.0039 76.625 69.2148C75.9297 68.418 75.0625 68.0195 74.0234 68.0195C72.9688 68.0195 72.0938 68.4141 71.3984 69.2031C70.7031 69.9922 70.3555 71.1836 70.3555 72.7773ZM82.3086 79V66.5547H84.207V68.4414C84.6914 67.5586 85.1367 66.9766 85.543 66.6953C85.957 66.4141 86.4102 66.2734 86.9023 66.2734C87.6133 66.2734 88.3359 66.5 89.0703 66.9531L88.3438 68.9102C87.8281 68.6055 87.3125 68.4531 86.7969 68.4531C86.3359 68.4531 85.9219 68.5938 85.5547 68.875C85.1875 69.1484 84.9258 69.5312 84.7695 70.0234C84.5352 70.7734 84.418 71.5938 84.418 72.4844V79H82.3086ZM90.2773 79V61.8203H92.3867V79H90.2773ZM103.742 79V77.4297C102.953 78.6641 101.793 79.2812 100.262 79.2812C99.2695 79.2812 98.3555 79.0078 97.5195 78.4609C96.6914 77.9141 96.0469 77.1523 95.5859 76.1758C95.1328 75.1914 94.9062 74.0625 94.9062 72.7891C94.9062 71.5469 95.1133 70.4219 95.5273 69.4141C95.9414 68.3984 96.5625 67.6211 97.3906 67.082C98.2188 66.543 99.1445 66.2734 100.168 66.2734C100.918 66.2734 101.586 66.4336 102.172 66.7539C102.758 67.0664 103.234 67.4766 103.602 67.9844V61.8203H105.699V79H103.742ZM97.0742 72.7891C97.0742 74.3828 97.4102 75.5742 98.082 76.3633C98.7539 77.1523 99.5469 77.5469 100.461 77.5469C101.383 77.5469 102.164 77.1719 102.805 76.4219C103.453 75.6641 103.777 74.5117 103.777 72.9648C103.777 71.2617 103.449 70.0117 102.793 69.2148C102.137 68.418 101.328 68.0195 100.367 68.0195C99.4297 68.0195 98.6445 68.4023 98.0117 69.168C97.3867 69.9336 97.0742 71.1406 97.0742 72.7891ZM123.828 74.4414L125.902 74.7109C125.676 76.1406 125.094 77.2617 124.156 78.0742C123.227 78.8789 122.082 79.2812 120.723 79.2812C119.02 79.2812 117.648 78.7266 116.609 77.6172C115.578 76.5 115.062 74.9023 115.062 72.8242C115.062 71.4805 115.285 70.3047 115.73 69.2969C116.176 68.2891 116.852 67.5352 117.758 67.0352C118.672 66.5273 119.664 66.2734 120.734 66.2734C122.086 66.2734 123.191 66.6172 124.051 67.3047C124.91 67.9844 125.461 68.9531 125.703 70.2109L123.652 70.5273C123.457 69.6914 123.109 69.0625 122.609 68.6406C122.117 68.2188 121.52 68.0078 120.816 68.0078C119.754 68.0078 118.891 68.3906 118.227 69.1562C117.562 69.9141 117.23 71.1172 117.23 72.7656C117.23 74.4375 117.551 75.6523 118.191 76.4102C118.832 77.168 119.668 77.5469 120.699 77.5469C121.527 77.5469 122.219 77.293 122.773 76.7852C123.328 76.2773 123.68 75.4961 123.828 74.4414ZM127.66 79V61.8203H129.77V79H127.66ZM141.172 77.4648C140.391 78.1289 139.637 78.5977 138.91 78.8711C138.191 79.1445 137.418 79.2812 136.59 79.2812C135.223 79.2812 134.172 78.9492 133.438 78.2852C132.703 77.6133 132.336 76.7578 132.336 75.7188C132.336 75.1094 132.473 74.5547 132.746 74.0547C133.027 73.5469 133.391 73.1406 133.836 72.8359C134.289 72.5312 134.797 72.3008 135.359 72.1445C135.773 72.0352 136.398 71.9297 137.234 71.8281C138.938 71.625 140.191 71.3828 140.996 71.1016C141.004 70.8125 141.008 70.6289 141.008 70.5508C141.008 69.6914 140.809 69.0859 140.41 68.7344C139.871 68.2578 139.07 68.0195 138.008 68.0195C137.016 68.0195 136.281 68.1953 135.805 68.5469C135.336 68.8906 134.988 69.5039 134.762 70.3867L132.699 70.1055C132.887 69.2227 133.195 68.5117 133.625 67.9727C134.055 67.4258 134.676 67.0078 135.488 66.7188C136.301 66.4219 137.242 66.2734 138.312 66.2734C139.375 66.2734 140.238 66.3984 140.902 66.6484C141.566 66.8984 142.055 67.2148 142.367 67.5977C142.68 67.9727 142.898 68.4492 143.023 69.0273C143.094 69.3867 143.129 70.0352 143.129 70.9727V73.7852C143.129 75.7461 143.172 76.9883 143.258 77.5117C143.352 78.0273 143.531 78.5234 143.797 79H141.594C141.375 78.5625 141.234 78.0508 141.172 77.4648ZM140.996 72.7539C140.23 73.0664 139.082 73.332 137.551 73.5508C136.684 73.6758 136.07 73.8164 135.711 73.9727C135.352 74.1289 135.074 74.3594 134.879 74.6641C134.684 74.9609 134.586 75.293 134.586 75.6602C134.586 76.2227 134.797 76.6914 135.219 77.0664C135.648 77.4414 136.273 77.6289 137.094 77.6289C137.906 77.6289 138.629 77.4531 139.262 77.1016C139.895 76.7422 140.359 76.2539 140.656 75.6367C140.883 75.1602 140.996 74.457 140.996 73.5273V72.7539ZM145.566 75.2852L147.652 74.957C147.77 75.793 148.094 76.4336 148.625 76.8789C149.164 77.3242 149.914 77.5469 150.875 77.5469C151.844 77.5469 152.562 77.3516 153.031 76.9609C153.5 76.5625 153.734 76.0977 153.734 75.5664C153.734 75.0898 153.527 74.7148 153.113 74.4414C152.824 74.2539 152.105 74.0156 150.957 73.7266C149.41 73.3359 148.336 73 147.734 72.7188C147.141 72.4297 146.688 72.0352 146.375 71.5352C146.07 71.0273 145.918 70.4688 145.918 69.8594C145.918 69.3047 146.043 68.793 146.293 68.3242C146.551 67.8477 146.898 67.4531 147.336 67.1406C147.664 66.8984 148.109 66.6953 148.672 66.5312C149.242 66.3594 149.852 66.2734 150.5 66.2734C151.477 66.2734 152.332 66.4141 153.066 66.6953C153.809 66.9766 154.355 67.3594 154.707 67.8438C155.059 68.3203 155.301 68.9609 155.434 69.7656L153.371 70.0469C153.277 69.4062 153.004 68.9062 152.551 68.5469C152.105 68.1875 151.473 68.0078 150.652 68.0078C149.684 68.0078 148.992 68.168 148.578 68.4883C148.164 68.8086 147.957 69.1836 147.957 69.6133C147.957 69.8867 148.043 70.1328 148.215 70.3516C148.387 70.5781 148.656 70.7656 149.023 70.9141C149.234 70.9922 149.855 71.1719 150.887 71.4531C152.379 71.8516 153.418 72.1797 154.004 72.4375C154.598 72.6875 155.062 73.0547 155.398 73.5391C155.734 74.0234 155.902 74.625 155.902 75.3438C155.902 76.0469 155.695 76.7109 155.281 77.3359C154.875 77.9531 154.285 78.4336 153.512 78.7773C152.738 79.1133 151.863 79.2812 150.887 79.2812C149.27 79.2812 148.035 78.9453 147.184 78.2734C146.34 77.6016 145.801 76.6055 145.566 75.2852ZM157.566 75.2852L159.652 74.957C159.77 75.793 160.094 76.4336 160.625 76.8789C161.164 77.3242 161.914 77.5469 162.875 77.5469C163.844 77.5469 164.562 77.3516 165.031 76.9609C165.5 76.5625 165.734 76.0977 165.734 75.5664C165.734 75.0898 165.527 74.7148 165.113 74.4414C164.824 74.2539 164.105 74.0156 162.957 73.7266C161.41 73.3359 160.336 73 159.734 72.7188C159.141 72.4297 158.688 72.0352 158.375 71.5352C158.07 71.0273 157.918 70.4688 157.918 69.8594C157.918 69.3047 158.043 68.793 158.293 68.3242C158.551 67.8477 158.898 67.4531 159.336 67.1406C159.664 66.8984 160.109 66.6953 160.672 66.5312C161.242 66.3594 161.852 66.2734 162.5 66.2734C163.477 66.2734 164.332 66.4141 165.066 66.6953C165.809 66.9766 166.355 67.3594 166.707 67.8438C167.059 68.3203 167.301 68.9609 167.434 69.7656L165.371 70.0469C165.277 69.4062 165.004 68.9062 164.551 68.5469C164.105 68.1875 163.473 68.0078 162.652 68.0078C161.684 68.0078 160.992 68.168 160.578 68.4883C160.164 68.8086 159.957 69.1836 159.957 69.6133C159.957 69.8867 160.043 70.1328 160.215 70.3516C160.387 70.5781 160.656 70.7656 161.023 70.9141C161.234 70.9922 161.855 71.1719 162.887 71.4531C164.379 71.8516 165.418 72.1797 166.004 72.4375C166.598 72.6875 167.062 73.0547 167.398 73.5391C167.734 74.0234 167.902 74.625 167.902 75.3438C167.902 76.0469 167.695 76.7109 167.281 77.3359C166.875 77.9531 166.285 78.4336 165.512 78.7773C164.738 79.1133 163.863 79.2812 162.887 79.2812C161.27 79.2812 160.035 78.9453 159.184 78.2734C158.34 77.6016 157.801 76.6055 157.566 75.2852ZM65.7969 107V89.8203H67.9062V107H65.7969ZM79.707 102.992L81.8867 103.262C81.543 104.535 80.9062 105.523 79.9766 106.227C79.0469 106.93 77.8594 107.281 76.4141 107.281C74.5938 107.281 73.1484 106.723 72.0781 105.605C71.0156 104.48 70.4844 102.906 70.4844 100.883C70.4844 98.7891 71.0234 97.1641 72.1016 96.0078C73.1797 94.8516 74.5781 94.2734 76.2969 94.2734C77.9609 94.2734 79.3203 94.8398 80.375 95.9727C81.4297 97.1055 81.957 98.6992 81.957 100.754C81.957 100.879 81.9531 101.066 81.9453 101.316H72.6641C72.7422 102.684 73.1289 103.73 73.8242 104.457C74.5195 105.184 75.3867 105.547 76.4258 105.547C77.1992 105.547 77.8594 105.344 78.4062 104.938C78.9531 104.531 79.3867 103.883 79.707 102.992ZM72.7812 99.582H79.7305C79.6367 98.5352 79.3711 97.75 78.9336 97.2266C78.2617 96.4141 77.3906 96.0078 76.3203 96.0078C75.3516 96.0078 74.5352 96.332 73.8711 96.9805C73.2148 97.6289 72.8516 98.4961 72.7812 99.582ZM92.668 105.465C91.8867 106.129 91.1328 106.598 90.4062 106.871C89.6875 107.145 88.9141 107.281 88.0859 107.281C86.7188 107.281 85.668 106.949 84.9336 106.285C84.1992 105.613 83.832 104.758 83.832 103.719C83.832 103.109 83.9688 102.555 84.2422 102.055C84.5234 101.547 84.8867 101.141 85.332 100.836C85.7852 100.531 86.293 100.301 86.8555 100.145C87.2695 100.035 87.8945 99.9297 88.7305 99.8281C90.4336 99.625 91.6875 99.3828 92.4922 99.1016C92.5 98.8125 92.5039 98.6289 92.5039 98.5508C92.5039 97.6914 92.3047 97.0859 91.9062 96.7344C91.3672 96.2578 90.5664 96.0195 89.5039 96.0195C88.5117 96.0195 87.7773 96.1953 87.3008 96.5469C86.832 96.8906 86.4844 97.5039 86.2578 98.3867L84.1953 98.1055C84.3828 97.2227 84.6914 96.5117 85.1211 95.9727C85.5508 95.4258 86.1719 95.0078 86.9844 94.7188C87.7969 94.4219 88.7383 94.2734 89.8086 94.2734C90.8711 94.2734 91.7344 94.3984 92.3984 94.6484C93.0625 94.8984 93.5508 95.2148 93.8633 95.5977C94.1758 95.9727 94.3945 96.4492 94.5195 97.0273C94.5898 97.3867 94.625 98.0352 94.625 98.9727V101.785C94.625 103.746 94.668 104.988 94.7539 105.512C94.8477 106.027 95.0273 106.523 95.293 107H93.0898C92.8711 106.562 92.7305 106.051 92.668 105.465ZM92.4922 100.754C91.7266 101.066 90.5781 101.332 89.0469 101.551C88.1797 101.676 87.5664 101.816 87.207 101.973C86.8477 102.129 86.5703 102.359 86.375 102.664C86.1797 102.961 86.082 103.293 86.082 103.66C86.082 104.223 86.293 104.691 86.7148 105.066C87.1445 105.441 87.7695 105.629 88.5898 105.629C89.4023 105.629 90.125 105.453 90.7578 105.102C91.3906 104.742 91.8555 104.254 92.1523 103.637C92.3789 103.16 92.4922 102.457 92.4922 101.527V100.754ZM97.8828 107V94.5547H99.7812V96.4414C100.266 95.5586 100.711 94.9766 101.117 94.6953C101.531 94.4141 101.984 94.2734 102.477 94.2734C103.188 94.2734 103.91 94.5 104.645 94.9531L103.918 96.9102C103.402 96.6055 102.887 96.4531 102.371 96.4531C101.91 96.4531 101.496 96.5938 101.129 96.875C100.762 97.1484 100.5 97.5312 100.344 98.0234C100.109 98.7734 99.9922 99.5938 99.9922 100.484V107H97.8828ZM105.898 107V94.5547H107.797V96.3242C108.711 94.957 110.031 94.2734 111.758 94.2734C112.508 94.2734 113.195 94.4102 113.82 94.6836C114.453 94.9492 114.926 95.3008 115.238 95.7383C115.551 96.1758 115.77 96.6953 115.895 97.2969C115.973 97.6875 116.012 98.3711 116.012 99.3477V107H113.902V99.4297C113.902 98.5703 113.82 97.9297 113.656 97.5078C113.492 97.0781 113.199 96.7383 112.777 96.4883C112.363 96.2305 111.875 96.1016 111.312 96.1016C110.414 96.1016 109.637 96.3867 108.98 96.957C108.332 97.5273 108.008 98.6094 108.008 100.203V107H105.898ZM119.27 92.2461V89.8203H121.379V92.2461H119.27ZM119.27 107V94.5547H121.379V107H119.27ZM124.602 107V94.5547H126.5V96.3242C127.414 94.957 128.734 94.2734 130.461 94.2734C131.211 94.2734 131.898 94.4102 132.523 94.6836C133.156 94.9492 133.629 95.3008 133.941 95.7383C134.254 96.1758 134.473 96.6953 134.598 97.2969C134.676 97.6875 134.715 98.3711 134.715 99.3477V107H132.605V99.4297C132.605 98.5703 132.523 97.9297 132.359 97.5078C132.195 97.0781 131.902 96.7383 131.48 96.4883C131.066 96.2305 130.578 96.1016 130.016 96.1016C129.117 96.1016 128.34 96.3867 127.684 96.957C127.035 97.5273 126.711 98.6094 126.711 100.203V107H124.602ZM137.574 108.031L139.625 108.336C139.711 108.969 139.949 109.43 140.34 109.719C140.863 110.109 141.578 110.305 142.484 110.305C143.461 110.305 144.215 110.109 144.746 109.719C145.277 109.328 145.637 108.781 145.824 108.078C145.934 107.648 145.984 106.746 145.977 105.371C145.055 106.457 143.906 107 142.531 107C140.82 107 139.496 106.383 138.559 105.148C137.621 103.914 137.152 102.434 137.152 100.707C137.152 99.5195 137.367 98.4258 137.797 97.4258C138.227 96.418 138.848 95.6406 139.66 95.0938C140.48 94.5469 141.441 94.2734 142.543 94.2734C144.012 94.2734 145.223 94.8672 146.176 96.0547V94.5547H148.121V105.312C148.121 107.25 147.922 108.621 147.523 109.426C147.133 110.238 146.508 110.879 145.648 111.348C144.797 111.816 143.746 112.051 142.496 112.051C141.012 112.051 139.812 111.715 138.898 111.043C137.984 110.379 137.543 109.375 137.574 108.031ZM139.32 100.555C139.32 102.188 139.645 103.379 140.293 104.129C140.941 104.879 141.754 105.254 142.73 105.254C143.699 105.254 144.512 104.883 145.168 104.141C145.824 103.391 146.152 102.219 146.152 100.625C146.152 99.1016 145.812 97.9531 145.133 97.1797C144.461 96.4062 143.648 96.0195 142.695 96.0195C141.758 96.0195 140.961 96.4023 140.305 97.168C139.648 97.9258 139.32 99.0547 139.32 100.555Z" fill="white"/>
</svg>
