<svg width="211" height="170" viewBox="0 0 211 170" fill="none" xmlns="http://www.w3.org/2000/svg">
<rect width="211" height="170" rx="30" fill="#2400FF" fill-opacity="0.45"/>
<path d="M75.7695 95L69.1133 77.8203H71.5742L76.0391 90.3008C76.3984 91.3008 76.6992 92.2383 76.9414 93.1133C77.207 92.1758 77.5156 91.2383 77.8672 90.3008L82.5078 77.8203H84.8281L78.1016 95H75.7695ZM86.1641 80.2461V77.8203H88.2734V80.2461H86.1641ZM86.1641 95V82.5547H88.2734V95H86.1641ZM99.5703 95V93.4297C98.7812 94.6641 97.6211 95.2812 96.0898 95.2812C95.0977 95.2812 94.1836 95.0078 93.3477 94.4609C92.5195 93.9141 91.875 93.1523 91.4141 92.1758C90.9609 91.1914 90.7344 90.0625 90.7344 88.7891C90.7344 87.5469 90.9414 86.4219 91.3555 85.4141C91.7695 84.3984 92.3906 83.6211 93.2188 83.082C94.0469 82.543 94.9727 82.2734 95.9961 82.2734C96.7461 82.2734 97.4141 82.4336 98 82.7539C98.5859 83.0664 99.0625 83.4766 99.4297 83.9844V77.8203H101.527V95H99.5703ZM92.9023 88.7891C92.9023 90.3828 93.2383 91.5742 93.9102 92.3633C94.582 93.1523 95.375 93.5469 96.2891 93.5469C97.2109 93.5469 97.9922 93.1719 98.6328 92.4219C99.2812 91.6641 99.6055 90.5117 99.6055 88.9648C99.6055 87.2617 99.2773 86.0117 98.6211 85.2148C97.9648 84.418 97.1562 84.0195 96.1953 84.0195C95.2578 84.0195 94.4727 84.4023 93.8398 85.168C93.2148 85.9336 92.9023 87.1406 92.9023 88.7891ZM113.375 90.9922L115.555 91.2617C115.211 92.5352 114.574 93.5234 113.645 94.2266C112.715 94.9297 111.527 95.2812 110.082 95.2812C108.262 95.2812 106.816 94.7227 105.746 93.6055C104.684 92.4805 104.152 90.9062 104.152 88.8828C104.152 86.7891 104.691 85.1641 105.77 84.0078C106.848 82.8516 108.246 82.2734 109.965 82.2734C111.629 82.2734 112.988 82.8398 114.043 83.9727C115.098 85.1055 115.625 86.6992 115.625 88.7539C115.625 88.8789 115.621 89.0664 115.613 89.3164H106.332C106.41 90.6836 106.797 91.7305 107.492 92.457C108.188 93.1836 109.055 93.5469 110.094 93.5469C110.867 93.5469 111.527 93.3438 112.074 92.9375C112.621 92.5312 113.055 91.8828 113.375 90.9922ZM106.449 87.582H113.398C113.305 86.5352 113.039 85.75 112.602 85.2266C111.93 84.4141 111.059 84.0078 109.988 84.0078C109.02 84.0078 108.203 84.332 107.539 84.9805C106.883 85.6289 106.52 86.4961 106.449 87.582ZM117.43 88.7773C117.43 86.4727 118.07 84.7656 119.352 83.6562C120.422 82.7344 121.727 82.2734 123.266 82.2734C124.977 82.2734 126.375 82.8359 127.461 83.9609C128.547 85.0781 129.09 86.625 129.09 88.6016C129.09 90.2031 128.848 91.4648 128.363 92.3867C127.887 93.3008 127.188 94.0117 126.266 94.5195C125.352 95.0273 124.352 95.2812 123.266 95.2812C121.523 95.2812 120.113 94.7227 119.035 93.6055C117.965 92.4883 117.43 90.8789 117.43 88.7773ZM119.598 88.7773C119.598 90.3711 119.945 91.5664 120.641 92.3633C121.336 93.1523 122.211 93.5469 123.266 93.5469C124.312 93.5469 125.184 93.1484 125.879 92.3516C126.574 91.5547 126.922 90.3398 126.922 88.707C126.922 87.168 126.57 86.0039 125.867 85.2148C125.172 84.418 124.305 84.0195 123.266 84.0195C122.211 84.0195 121.336 84.4141 120.641 85.2031C119.945 85.9922 119.598 87.1836 119.598 88.7773ZM130.73 91.2852L132.816 90.957C132.934 91.793 133.258 92.4336 133.789 92.8789C134.328 93.3242 135.078 93.5469 136.039 93.5469C137.008 93.5469 137.727 93.3516 138.195 92.9609C138.664 92.5625 138.898 92.0977 138.898 91.5664C138.898 91.0898 138.691 90.7148 138.277 90.4414C137.988 90.2539 137.27 90.0156 136.121 89.7266C134.574 89.3359 133.5 89 132.898 88.7188C132.305 88.4297 131.852 88.0352 131.539 87.5352C131.234 87.0273 131.082 86.4688 131.082 85.8594C131.082 85.3047 131.207 84.793 131.457 84.3242C131.715 83.8477 132.062 83.4531 132.5 83.1406C132.828 82.8984 133.273 82.6953 133.836 82.5312C134.406 82.3594 135.016 82.2734 135.664 82.2734C136.641 82.2734 137.496 82.4141 138.23 82.6953C138.973 82.9766 139.52 83.3594 139.871 83.8438C140.223 84.3203 140.465 84.9609 140.598 85.7656L138.535 86.0469C138.441 85.4062 138.168 84.9062 137.715 84.5469C137.27 84.1875 136.637 84.0078 135.816 84.0078C134.848 84.0078 134.156 84.168 133.742 84.4883C133.328 84.8086 133.121 85.1836 133.121 85.6133C133.121 85.8867 133.207 86.1328 133.379 86.3516C133.551 86.5781 133.82 86.7656 134.188 86.9141C134.398 86.9922 135.02 87.1719 136.051 87.4531C137.543 87.8516 138.582 88.1797 139.168 88.4375C139.762 88.6875 140.227 89.0547 140.562 89.5391C140.898 90.0234 141.066 90.625 141.066 91.3438C141.066 92.0469 140.859 92.7109 140.445 93.3359C140.039 93.9531 139.449 94.4336 138.676 94.7773C137.902 95.1133 137.027 95.2812 136.051 95.2812C134.434 95.2812 133.199 94.9453 132.348 94.2734C131.504 93.6016 130.965 92.6055 130.73 91.2852Z" fill="white"/>
</svg>
