<svg width="155" height="60" viewBox="0 0 155 60" fill="none" xmlns="http://www.w3.org/2000/svg">
<rect width="155" height="60" rx="30" fill="#F98181"/>
<path d="M24.0146 22.252H27.1943V30.7812C27.1943 32.1348 27.2337 33.012 27.3125 33.4131C27.4486 34.0576 27.7708 34.5768 28.2793 34.9707C28.7949 35.3574 29.4967 35.5508 30.3848 35.5508C31.2871 35.5508 31.9674 35.3682 32.4258 35.0029C32.8841 34.6305 33.1598 34.1758 33.2529 33.6387C33.346 33.1016 33.3926 32.21 33.3926 30.9639V22.252H36.5723V30.5234C36.5723 32.4141 36.4863 33.7497 36.3145 34.5303C36.1426 35.3109 35.8239 35.9697 35.3584 36.5068C34.9001 37.0439 34.2842 37.4736 33.5107 37.7959C32.7373 38.111 31.7275 38.2686 30.4814 38.2686C28.9775 38.2686 27.8353 38.0967 27.0547 37.7529C26.2812 37.402 25.6689 36.9508 25.2178 36.3994C24.7666 35.8408 24.4694 35.2572 24.3262 34.6484C24.1185 33.7461 24.0146 32.4141 24.0146 30.6523V22.252ZM50.29 38H47.2715V32.1777C47.2715 30.946 47.207 30.151 47.0781 29.793C46.9492 29.4277 46.738 29.1449 46.4443 28.9443C46.1579 28.7438 45.8105 28.6436 45.4023 28.6436C44.8796 28.6436 44.4105 28.7868 43.9951 29.0732C43.5798 29.3597 43.2933 29.7393 43.1357 30.2119C42.9854 30.6846 42.9102 31.5583 42.9102 32.833V38H39.8916V26.5918H42.6953V28.2676C43.6908 26.9785 44.944 26.334 46.4551 26.334C47.1211 26.334 47.7298 26.4557 48.2812 26.6992C48.8327 26.9355 49.248 27.2399 49.5273 27.6123C49.8138 27.9847 50.0107 28.4072 50.1182 28.8799C50.2327 29.3525 50.29 30.0293 50.29 30.9102V38ZM56.252 38H53.2334V26.5918H56.0371V28.2139C56.5169 27.4476 56.9466 26.9427 57.3262 26.6992C57.7129 26.4557 58.1497 26.334 58.6367 26.334C59.3242 26.334 59.9867 26.5238 60.624 26.9033L59.6895 29.5352C59.181 29.2057 58.7083 29.041 58.2715 29.041C57.849 29.041 57.4909 29.1592 57.1973 29.3955C56.9036 29.6247 56.6709 30.0436 56.499 30.6523C56.3343 31.2611 56.252 32.5358 56.252 34.4766V38ZM68.541 34.3691L71.5488 34.874C71.1621 35.9769 70.5498 36.8184 69.7119 37.3984C68.8812 37.9714 67.8392 38.2578 66.5859 38.2578C64.6022 38.2578 63.1341 37.6097 62.1816 36.3135C61.4297 35.2751 61.0537 33.9645 61.0537 32.3818C61.0537 30.4912 61.5479 29.0124 62.5361 27.9453C63.5244 26.8711 64.7741 26.334 66.2852 26.334C67.9824 26.334 69.3216 26.8962 70.3027 28.0205C71.2839 29.1377 71.7529 30.8529 71.71 33.166H64.1475C64.1689 34.0612 64.4124 34.7594 64.8779 35.2607C65.3434 35.7549 65.9235 36.002 66.6182 36.002C67.0908 36.002 67.4883 35.873 67.8105 35.6152C68.1328 35.3574 68.3763 34.9421 68.541 34.3691ZM68.7129 31.3184C68.6914 30.4447 68.4658 29.7822 68.0361 29.3311C67.6064 28.8727 67.0837 28.6436 66.4678 28.6436C65.8089 28.6436 65.2646 28.8835 64.835 29.3633C64.4053 29.8431 64.194 30.4948 64.2012 31.3184H68.7129ZM73.9014 38.752L77.3496 39.1709C77.4069 39.5719 77.5394 39.8477 77.7471 39.998C78.0335 40.2129 78.4847 40.3203 79.1006 40.3203C79.8883 40.3203 80.4792 40.2021 80.873 39.9658C81.138 39.8083 81.3385 39.554 81.4746 39.2031C81.5677 38.9525 81.6143 38.4906 81.6143 37.8174V36.1523C80.7119 37.3841 79.5732 38 78.1982 38C76.6657 38 75.4518 37.3519 74.5566 36.0557C73.8548 35.0316 73.5039 33.7568 73.5039 32.2314C73.5039 30.3193 73.9622 28.8584 74.8789 27.8486C75.8027 26.8389 76.9486 26.334 78.3164 26.334C79.7272 26.334 80.891 26.9535 81.8076 28.1924V26.5918H84.6328V36.8291C84.6328 38.1755 84.5218 39.1816 84.2998 39.8477C84.0778 40.5137 83.7663 41.0365 83.3652 41.416C82.9642 41.7956 82.4271 42.0928 81.7539 42.3076C81.0879 42.5225 80.2428 42.6299 79.2188 42.6299C77.2852 42.6299 75.9137 42.2969 75.1045 41.6309C74.2952 40.972 73.8906 40.1341 73.8906 39.1172C73.8906 39.0169 73.8942 38.8952 73.9014 38.752ZM76.5977 32.0596C76.5977 33.2699 76.8304 34.1579 77.2959 34.7236C77.7686 35.2822 78.3486 35.5615 79.0361 35.5615C79.7738 35.5615 80.3968 35.2751 80.9053 34.7021C81.4137 34.1221 81.668 33.2663 81.668 32.1348C81.668 30.9531 81.4245 30.0758 80.9375 29.5029C80.4505 28.93 79.8346 28.6436 79.0898 28.6436C78.3665 28.6436 77.7686 28.9264 77.2959 29.4922C76.8304 30.0508 76.5977 30.9066 76.5977 32.0596ZM87.6299 25.0449V22.252H90.6484V25.0449H87.6299ZM87.6299 38V26.5918H90.6484V38H87.6299ZM92.6895 34.7451L95.7188 34.2832C95.8477 34.8704 96.109 35.318 96.5029 35.626C96.8968 35.9268 97.4482 36.0771 98.1572 36.0771C98.9378 36.0771 99.5251 35.9339 99.9189 35.6475C100.184 35.4469 100.316 35.1784 100.316 34.8418C100.316 34.6126 100.245 34.4229 100.102 34.2725C99.9512 34.1292 99.6146 33.9967 99.0918 33.875C96.6569 33.3379 95.1136 32.8473 94.4619 32.4033C93.5596 31.7874 93.1084 30.9316 93.1084 29.8359C93.1084 28.8477 93.4987 28.0169 94.2793 27.3438C95.0599 26.6706 96.2702 26.334 97.9102 26.334C99.4714 26.334 100.632 26.5882 101.391 27.0967C102.15 27.6051 102.673 28.3571 102.959 29.3525L100.112 29.8789C99.9906 29.4349 99.7578 29.0947 99.4141 28.8584C99.0775 28.6221 98.5941 28.5039 97.9639 28.5039C97.1689 28.5039 96.5996 28.6149 96.2559 28.8369C96.0267 28.9945 95.9121 29.1986 95.9121 29.4492C95.9121 29.6641 96.0124 29.8467 96.2129 29.9971C96.485 30.1976 97.4232 30.4805 99.0273 30.8457C100.639 31.2109 101.763 31.6585 102.4 32.1885C103.031 32.7256 103.346 33.474 103.346 34.4336C103.346 35.4792 102.909 36.3779 102.035 37.1299C101.161 37.8818 99.8688 38.2578 98.1572 38.2578C96.6032 38.2578 95.3714 37.9427 94.4619 37.3125C93.5596 36.6823 92.9688 35.8265 92.6895 34.7451ZM111.23 26.5918V28.998H109.168V33.5957C109.168 34.5267 109.186 35.071 109.222 35.2285C109.265 35.3789 109.354 35.5042 109.49 35.6045C109.633 35.7048 109.805 35.7549 110.006 35.7549C110.285 35.7549 110.69 35.6582 111.22 35.4648L111.478 37.8066C110.776 38.1074 109.981 38.2578 109.093 38.2578C108.549 38.2578 108.058 38.1683 107.621 37.9893C107.184 37.8031 106.862 37.5667 106.654 37.2803C106.454 36.9867 106.314 36.5928 106.235 36.0986C106.171 35.7477 106.139 35.0387 106.139 33.9717V28.998H104.753V26.5918H106.139V24.3252L109.168 22.5635V26.5918H111.23ZM119.932 34.3691L122.939 34.874C122.553 35.9769 121.94 36.8184 121.103 37.3984C120.272 37.9714 119.23 38.2578 117.977 38.2578C115.993 38.2578 114.525 37.6097 113.572 36.3135C112.82 35.2751 112.444 33.9645 112.444 32.3818C112.444 30.4912 112.938 29.0124 113.927 27.9453C114.915 26.8711 116.165 26.334 117.676 26.334C119.373 26.334 120.712 26.8962 121.693 28.0205C122.674 29.1377 123.144 30.8529 123.101 33.166H115.538C115.56 34.0612 115.803 34.7594 116.269 35.2607C116.734 35.7549 117.314 36.002 118.009 36.002C118.481 36.002 118.879 35.873 119.201 35.6152C119.523 35.3574 119.767 34.9421 119.932 34.3691ZM120.104 31.3184C120.082 30.4447 119.856 29.7822 119.427 29.3311C118.997 28.8727 118.474 28.6436 117.858 28.6436C117.2 28.6436 116.655 28.8835 116.226 29.3633C115.796 29.8431 115.585 30.4948 115.592 31.3184H120.104ZM128.461 38H125.442V26.5918H128.246V28.2139C128.726 27.4476 129.156 26.9427 129.535 26.6992C129.922 26.4557 130.359 26.334 130.846 26.334C131.533 26.334 132.196 26.5238 132.833 26.9033L131.898 29.5352C131.39 29.2057 130.917 29.041 130.48 29.041C130.058 29.041 129.7 29.1592 129.406 29.3955C129.113 29.6247 128.88 30.0436 128.708 30.6523C128.543 31.2611 128.461 32.5358 128.461 34.4766V38Z" fill="white"/>
</svg>
