<svg width="155" height="60" viewBox="0 0 155 60" fill="none" xmlns="http://www.w3.org/2000/svg">
<rect width="155" height="60" rx="30" fill="#9CE56E"/>
<path d="M33.4893 38V24.916H28.8164V22.252H41.3311V24.916H36.6689V38H33.4893ZM43.9951 30.0723L41.2559 29.5781C41.5638 28.4753 42.0938 27.6589 42.8457 27.1289C43.5977 26.599 44.7148 26.334 46.1973 26.334C47.5436 26.334 48.5462 26.4951 49.2051 26.8174C49.8639 27.1325 50.3258 27.5371 50.5908 28.0312C50.863 28.5182 50.999 29.417 50.999 30.7275L50.9668 34.251C50.9668 35.2536 51.0133 35.9948 51.1064 36.4746C51.2067 36.9473 51.3893 37.4557 51.6543 38H48.668C48.5892 37.7995 48.4925 37.5023 48.3779 37.1084C48.3278 36.9294 48.292 36.8112 48.2705 36.7539C47.7549 37.2552 47.2035 37.6312 46.6162 37.8818C46.029 38.1325 45.4023 38.2578 44.7363 38.2578C43.5618 38.2578 42.6344 37.9391 41.9541 37.3018C41.2809 36.6644 40.9443 35.8587 40.9443 34.8848C40.9443 34.2402 41.0983 33.6673 41.4062 33.166C41.7142 32.6576 42.1439 32.2708 42.6953 32.0059C43.2539 31.7337 44.056 31.4974 45.1016 31.2969C46.5124 31.0319 47.4899 30.7848 48.0342 30.5557V30.2549C48.0342 29.6748 47.891 29.263 47.6045 29.0195C47.318 28.7689 46.7773 28.6436 45.9824 28.6436C45.4453 28.6436 45.0264 28.751 44.7256 28.9658C44.4248 29.1735 44.1813 29.5423 43.9951 30.0723ZM48.0342 32.5215C47.6475 32.6504 47.0352 32.8044 46.1973 32.9834C45.3594 33.1624 44.8115 33.3379 44.5537 33.5098C44.1598 33.7891 43.9629 34.1436 43.9629 34.5732C43.9629 34.9958 44.1204 35.361 44.4355 35.6689C44.7507 35.9769 45.1517 36.1309 45.6387 36.1309C46.1829 36.1309 46.7021 35.9518 47.1963 35.5938C47.5615 35.3216 47.8014 34.9886 47.916 34.5947C47.9948 34.3369 48.0342 33.8464 48.0342 33.123V32.5215ZM53.8779 38V22.252H56.8965V30.6094L60.4307 26.5918H64.1475L60.248 30.7598L64.4268 38H61.1719L58.3037 32.876L56.8965 34.3477V38H53.8779ZM72.8379 34.3691L75.8457 34.874C75.459 35.9769 74.8467 36.8184 74.0088 37.3984C73.1781 37.9714 72.1361 38.2578 70.8828 38.2578C68.8991 38.2578 67.431 37.6097 66.4785 36.3135C65.7266 35.2751 65.3506 33.9645 65.3506 32.3818C65.3506 30.4912 65.8447 29.0124 66.833 27.9453C67.8213 26.8711 69.071 26.334 70.582 26.334C72.2793 26.334 73.6185 26.8962 74.5996 28.0205C75.5807 29.1377 76.0498 30.8529 76.0068 33.166H68.4443C68.4658 34.0612 68.7093 34.7594 69.1748 35.2607C69.6403 35.7549 70.2204 36.002 70.915 36.002C71.3877 36.002 71.7852 35.873 72.1074 35.6152C72.4297 35.3574 72.6732 34.9421 72.8379 34.3691ZM73.0098 31.3184C72.9883 30.4447 72.7627 29.7822 72.333 29.3311C71.9033 28.8727 71.3805 28.6436 70.7646 28.6436C70.1058 28.6436 69.5615 28.8835 69.1318 29.3633C68.7021 29.8431 68.4909 30.4948 68.498 31.3184H73.0098ZM88.167 38V24.916H83.4941V22.252H96.0088V24.916H91.3467V38H88.167ZM103.023 34.3691L106.031 34.874C105.645 35.9769 105.032 36.8184 104.194 37.3984C103.364 37.9714 102.322 38.2578 101.068 38.2578C99.0846 38.2578 97.6165 37.6097 96.6641 36.3135C95.9121 35.2751 95.5361 33.9645 95.5361 32.3818C95.5361 30.4912 96.0303 29.0124 97.0186 27.9453C98.0068 26.8711 99.2565 26.334 100.768 26.334C102.465 26.334 103.804 26.8962 104.785 28.0205C105.766 29.1377 106.235 30.8529 106.192 33.166H98.6299C98.6514 34.0612 98.8949 34.7594 99.3604 35.2607C99.8258 35.7549 100.406 36.002 101.101 36.002C101.573 36.002 101.971 35.873 102.293 35.6152C102.615 35.3574 102.859 34.9421 103.023 34.3691ZM103.195 31.3184C103.174 30.4447 102.948 29.7822 102.519 29.3311C102.089 28.8727 101.566 28.6436 100.95 28.6436C100.291 28.6436 99.7471 28.8835 99.3174 29.3633C98.8877 29.8431 98.6764 30.4948 98.6836 31.3184H103.195ZM107.6 34.7451L110.629 34.2832C110.758 34.8704 111.019 35.318 111.413 35.626C111.807 35.9268 112.358 36.0771 113.067 36.0771C113.848 36.0771 114.435 35.9339 114.829 35.6475C115.094 35.4469 115.227 35.1784 115.227 34.8418C115.227 34.6126 115.155 34.4229 115.012 34.2725C114.861 34.1292 114.525 33.9967 114.002 33.875C111.567 33.3379 110.024 32.8473 109.372 32.4033C108.47 31.7874 108.019 30.9316 108.019 29.8359C108.019 28.8477 108.409 28.0169 109.189 27.3438C109.97 26.6706 111.18 26.334 112.82 26.334C114.382 26.334 115.542 26.5882 116.301 27.0967C117.06 27.6051 117.583 28.3571 117.869 29.3525L115.022 29.8789C114.901 29.4349 114.668 29.0947 114.324 28.8584C113.988 28.6221 113.504 28.5039 112.874 28.5039C112.079 28.5039 111.51 28.6149 111.166 28.8369C110.937 28.9945 110.822 29.1986 110.822 29.4492C110.822 29.6641 110.923 29.8467 111.123 29.9971C111.395 30.1976 112.333 30.4805 113.938 30.8457C115.549 31.2109 116.673 31.6585 117.311 32.1885C117.941 32.7256 118.256 33.474 118.256 34.4336C118.256 35.4792 117.819 36.3779 116.945 37.1299C116.072 37.8818 114.779 38.2578 113.067 38.2578C111.513 38.2578 110.282 37.9427 109.372 37.3125C108.47 36.6823 107.879 35.8265 107.6 34.7451ZM126.141 26.5918V28.998H124.078V33.5957C124.078 34.5267 124.096 35.071 124.132 35.2285C124.175 35.3789 124.264 35.5042 124.4 35.6045C124.544 35.7048 124.715 35.7549 124.916 35.7549C125.195 35.7549 125.6 35.6582 126.13 35.4648L126.388 37.8066C125.686 38.1074 124.891 38.2578 124.003 38.2578C123.459 38.2578 122.968 38.1683 122.531 37.9893C122.094 37.8031 121.772 37.5667 121.564 37.2803C121.364 36.9867 121.224 36.5928 121.146 36.0986C121.081 35.7477 121.049 35.0387 121.049 33.9717V28.998H119.663V26.5918H121.049V24.3252L124.078 22.5635V26.5918H126.141Z" fill="white"/>
</svg>
