<svg width="123" height="45" viewBox="0 0 123 45" fill="none" xmlns="http://www.w3.org/2000/svg">
<rect width="123" height="45" rx="22.5" fill="#FFC701"/>
<path d="M38.6816 23.7598C38.5814 24.8216 38.1895 25.651 37.5059 26.248C36.8223 26.8405 35.9131 27.1367 34.7783 27.1367C33.9854 27.1367 33.2858 26.9499 32.6797 26.5762C32.0781 26.1979 31.6133 25.6624 31.2852 24.9697C30.957 24.277 30.7861 23.4727 30.7725 22.5566V21.627C30.7725 20.6882 30.9388 19.861 31.2715 19.1455C31.6042 18.43 32.0804 17.8786 32.7002 17.4912C33.3245 17.1038 34.0446 16.9102 34.8604 16.9102C35.9587 16.9102 36.8428 17.2087 37.5127 17.8057C38.1826 18.4027 38.5723 19.2458 38.6816 20.335H36.959C36.877 19.6195 36.6673 19.1045 36.3301 18.79C35.9974 18.471 35.5075 18.3115 34.8604 18.3115C34.1084 18.3115 33.5296 18.5872 33.124 19.1387C32.723 19.6855 32.5179 20.4899 32.5088 21.5518V22.4336C32.5088 23.5091 32.7002 24.3294 33.083 24.8945C33.4704 25.4596 34.0355 25.7422 34.7783 25.7422C35.4574 25.7422 35.9678 25.5895 36.3096 25.2842C36.6514 24.9788 36.8678 24.4707 36.959 23.7598H38.6816ZM48.1768 22.2832C48.1768 23.2585 48.0081 24.1152 47.6709 24.8535C47.3337 25.5872 46.8506 26.1523 46.2217 26.5488C45.5973 26.9408 44.8773 27.1367 44.0615 27.1367C43.2549 27.1367 42.5348 26.9408 41.9014 26.5488C41.2725 26.1523 40.7848 25.5895 40.4385 24.8604C40.0967 24.1312 39.9235 23.2904 39.9189 22.3379V21.7773C39.9189 20.8066 40.0898 19.9499 40.4316 19.207C40.778 18.4642 41.2633 17.8968 41.8877 17.5049C42.5166 17.1084 43.2367 16.9102 44.0479 16.9102C44.859 16.9102 45.5768 17.1061 46.2012 17.498C46.8301 17.8854 47.3154 18.446 47.6572 19.1797C47.999 19.9089 48.1722 20.7588 48.1768 21.7295V22.2832ZM46.4473 21.7637C46.4473 20.6608 46.2376 19.8154 45.8184 19.2275C45.4036 18.6396 44.8135 18.3457 44.0479 18.3457C43.3005 18.3457 42.7148 18.6396 42.291 19.2275C41.8717 19.8109 41.6576 20.638 41.6484 21.709V22.2832C41.6484 23.377 41.8604 24.2223 42.2842 24.8193C42.7126 25.4163 43.305 25.7148 44.0615 25.7148C44.8271 25.7148 45.415 25.4232 45.8252 24.8398C46.2399 24.2565 46.4473 23.4043 46.4473 22.2832V21.7637ZM57.7949 27H56.0654L51.6289 19.9385V27H49.8994V17.0469H51.6289L56.0791 24.1357V17.0469H57.7949V27ZM66.8252 18.4414H63.7217V27H62.0059V18.4414H58.9297V17.0469H66.8252V18.4414ZM72.8887 24.6826H69.0332L68.2266 27H66.4287L70.1885 17.0469H71.7402L75.5068 27H73.7021L72.8887 24.6826ZM69.5186 23.2881H72.4033L70.9609 19.1592L69.5186 23.2881ZM84.0859 23.7598C83.9857 24.8216 83.5938 25.651 82.9102 26.248C82.2266 26.8405 81.3174 27.1367 80.1826 27.1367C79.3896 27.1367 78.6901 26.9499 78.084 26.5762C77.4824 26.1979 77.0176 25.6624 76.6895 24.9697C76.3613 24.277 76.1904 23.4727 76.1768 22.5566V21.627C76.1768 20.6882 76.3431 19.861 76.6758 19.1455C77.0085 18.43 77.4847 17.8786 78.1045 17.4912C78.7288 17.1038 79.4489 16.9102 80.2646 16.9102C81.363 16.9102 82.2471 17.2087 82.917 17.8057C83.5869 18.4027 83.9766 19.2458 84.0859 20.335H82.3633C82.2812 19.6195 82.0716 19.1045 81.7344 18.79C81.4017 18.471 80.9118 18.3115 80.2646 18.3115C79.5127 18.3115 78.9339 18.5872 78.5283 19.1387C78.1273 19.6855 77.9222 20.4899 77.9131 21.5518V22.4336C77.9131 23.5091 78.1045 24.3294 78.4873 24.8945C78.8747 25.4596 79.4398 25.7422 80.1826 25.7422C80.8617 25.7422 81.3721 25.5895 81.7139 25.2842C82.0557 24.9788 82.2721 24.4707 82.3633 23.7598H84.0859ZM92.624 18.4414H89.5205V27H87.8047V18.4414H84.7285V17.0469H92.624V18.4414Z" fill="white"/>
</svg>
