<svg width="186" height="62" viewBox="0 0 186 62" fill="none" xmlns="http://www.w3.org/2000/svg">
<rect width="186" height="62" rx="31" fill="#FFC701"/>
<path d="M45.3193 37V24.2207H47.9209V34.8291H54.3896V37H45.3193ZM61.6406 34.0293L64.1016 34.4424C63.7852 35.3447 63.2842 36.0332 62.5986 36.5078C61.9189 36.9766 61.0664 37.2109 60.041 37.2109C58.418 37.2109 57.2168 36.6807 56.4375 35.6201C55.8223 34.7705 55.5146 33.6982 55.5146 32.4033C55.5146 30.8564 55.9189 29.6465 56.7275 28.7734C57.5361 27.8945 58.5586 27.4551 59.7949 27.4551C61.1836 27.4551 62.2793 27.915 63.082 28.835C63.8848 29.749 64.2686 31.1523 64.2334 33.0449H58.0459C58.0635 33.7773 58.2627 34.3486 58.6436 34.7588C59.0244 35.1631 59.499 35.3652 60.0674 35.3652C60.4541 35.3652 60.7793 35.2598 61.043 35.0488C61.3066 34.8379 61.5059 34.498 61.6406 34.0293ZM61.7812 31.5332C61.7637 30.8184 61.5791 30.2764 61.2275 29.9072C60.876 29.5322 60.4482 29.3447 59.9443 29.3447C59.4053 29.3447 58.96 29.541 58.6084 29.9336C58.2568 30.3262 58.084 30.8594 58.0898 31.5332H61.7812ZM68.1006 30.5137L65.8594 30.1094C66.1113 29.207 66.5449 28.5391 67.1602 28.1055C67.7754 27.6719 68.6895 27.4551 69.9023 27.4551C71.0039 27.4551 71.8242 27.5869 72.3633 27.8506C72.9023 28.1084 73.2803 28.4395 73.4971 28.8438C73.7197 29.2422 73.8311 29.9775 73.8311 31.0498L73.8047 33.9326C73.8047 34.7529 73.8428 35.3594 73.9189 35.752C74.001 36.1387 74.1504 36.5547 74.3672 37H71.9238C71.8594 36.8359 71.7803 36.5928 71.6865 36.2705C71.6455 36.124 71.6162 36.0273 71.5986 35.9805C71.1768 36.3906 70.7256 36.6982 70.2451 36.9033C69.7646 37.1084 69.252 37.2109 68.707 37.2109C67.7461 37.2109 66.9873 36.9502 66.4307 36.4287C65.8799 35.9072 65.6045 35.248 65.6045 34.4512C65.6045 33.9238 65.7305 33.4551 65.9824 33.0449C66.2344 32.6289 66.5859 32.3125 67.0371 32.0957C67.4941 31.873 68.1504 31.6797 69.0059 31.5156C70.1602 31.2988 70.96 31.0967 71.4053 30.9092V30.6631C71.4053 30.1885 71.2881 29.8516 71.0537 29.6523C70.8193 29.4473 70.377 29.3447 69.7266 29.3447C69.2871 29.3447 68.9443 29.4326 68.6982 29.6084C68.4521 29.7783 68.2529 30.0801 68.1006 30.5137ZM71.4053 32.5176C71.0889 32.623 70.5879 32.749 69.9023 32.8955C69.2168 33.042 68.7686 33.1855 68.5576 33.3262C68.2354 33.5547 68.0742 33.8447 68.0742 34.1963C68.0742 34.542 68.2031 34.8408 68.4609 35.0928C68.7188 35.3447 69.0469 35.4707 69.4453 35.4707C69.8906 35.4707 70.3154 35.3242 70.7197 35.0312C71.0186 34.8086 71.2148 34.5361 71.3086 34.2139C71.373 34.0029 71.4053 33.6016 71.4053 33.0098V32.5176ZM78.6387 37H76.1689V27.666H78.4629V28.9932C78.8555 28.3662 79.207 27.9531 79.5176 27.7539C79.834 27.5547 80.1914 27.4551 80.5898 27.4551C81.1523 27.4551 81.6943 27.6104 82.2158 27.9209L81.4512 30.0742C81.0352 29.8047 80.6484 29.6699 80.291 29.6699C79.9453 29.6699 79.6523 29.7666 79.4121 29.96C79.1719 30.1475 78.9814 30.4902 78.8408 30.9883C78.7061 31.4863 78.6387 32.5293 78.6387 34.1172V37ZM91.7783 37H89.3086V32.2363C89.3086 31.2285 89.2559 30.5781 89.1504 30.2852C89.0449 29.9863 88.8721 29.7549 88.6318 29.5908C88.3975 29.4268 88.1133 29.3447 87.7793 29.3447C87.3516 29.3447 86.9678 29.4619 86.6279 29.6963C86.2881 29.9307 86.0537 30.2412 85.9248 30.6279C85.8018 31.0146 85.7402 31.7295 85.7402 32.7725V37H83.2705V27.666H85.5645V29.0371C86.3789 27.9824 87.4043 27.4551 88.6406 27.4551C89.1855 27.4551 89.6836 27.5547 90.1348 27.7539C90.5859 27.9473 90.9258 28.1963 91.1543 28.501C91.3887 28.8057 91.5498 29.1514 91.6377 29.5381C91.7314 29.9248 91.7783 30.4785 91.7783 31.1992V37ZM99.1172 27.666H101.394V28.9404C102.208 27.9502 103.178 27.4551 104.303 27.4551C104.9 27.4551 105.419 27.5781 105.858 27.8242C106.298 28.0703 106.658 28.4424 106.939 28.9404C107.35 28.4424 107.792 28.0703 108.267 27.8242C108.741 27.5781 109.248 27.4551 109.787 27.4551C110.473 27.4551 111.053 27.5957 111.527 27.877C112.002 28.1523 112.356 28.5596 112.591 29.0986C112.761 29.4971 112.846 30.1416 112.846 31.0322V37H110.376V31.665C110.376 30.7393 110.291 30.1416 110.121 29.8721C109.893 29.5205 109.541 29.3447 109.066 29.3447C108.721 29.3447 108.396 29.4502 108.091 29.6611C107.786 29.8721 107.566 30.1826 107.432 30.5928C107.297 30.9971 107.229 31.6387 107.229 32.5176V37H104.76V31.8848C104.76 30.9766 104.716 30.3906 104.628 30.127C104.54 29.8633 104.402 29.667 104.215 29.5381C104.033 29.4092 103.784 29.3447 103.468 29.3447C103.087 29.3447 102.744 29.4473 102.439 29.6523C102.135 29.8574 101.915 30.1533 101.78 30.54C101.651 30.9268 101.587 31.5684 101.587 32.4648V37H99.1172V27.666ZM114.744 32.2012C114.744 31.3809 114.946 30.5869 115.351 29.8193C115.755 29.0518 116.326 28.4658 117.064 28.0615C117.809 27.6572 118.638 27.4551 119.552 27.4551C120.964 27.4551 122.121 27.915 123.023 28.835C123.926 29.749 124.377 30.9062 124.377 32.3066C124.377 33.7188 123.92 34.8906 123.006 35.8223C122.098 36.748 120.952 37.2109 119.569 37.2109C118.714 37.2109 117.896 37.0176 117.117 36.6309C116.344 36.2441 115.755 35.6787 115.351 34.9346C114.946 34.1846 114.744 33.2734 114.744 32.2012ZM117.275 32.333C117.275 33.2588 117.495 33.9678 117.935 34.46C118.374 34.9521 118.916 35.1982 119.561 35.1982C120.205 35.1982 120.744 34.9521 121.178 34.46C121.617 33.9678 121.837 33.2529 121.837 32.3154C121.837 31.4014 121.617 30.6982 121.178 30.2061C120.744 29.7139 120.205 29.4678 119.561 29.4678C118.916 29.4678 118.374 29.7139 117.935 30.2061C117.495 30.6982 117.275 31.4072 117.275 32.333ZM128.684 37H126.214V27.666H128.508V28.9932C128.9 28.3662 129.252 27.9531 129.562 27.7539C129.879 27.5547 130.236 27.4551 130.635 27.4551C131.197 27.4551 131.739 27.6104 132.261 27.9209L131.496 30.0742C131.08 29.8047 130.693 29.6699 130.336 29.6699C129.99 29.6699 129.697 29.7666 129.457 29.96C129.217 30.1475 129.026 30.4902 128.886 30.9883C128.751 31.4863 128.684 32.5293 128.684 34.1172V37ZM138.738 34.0293L141.199 34.4424C140.883 35.3447 140.382 36.0332 139.696 36.5078C139.017 36.9766 138.164 37.2109 137.139 37.2109C135.516 37.2109 134.314 36.6807 133.535 35.6201C132.92 34.7705 132.612 33.6982 132.612 32.4033C132.612 30.8564 133.017 29.6465 133.825 28.7734C134.634 27.8945 135.656 27.4551 136.893 27.4551C138.281 27.4551 139.377 27.915 140.18 28.835C140.982 29.749 141.366 31.1523 141.331 33.0449H135.144C135.161 33.7773 135.36 34.3486 135.741 34.7588C136.122 35.1631 136.597 35.3652 137.165 35.3652C137.552 35.3652 137.877 35.2598 138.141 35.0488C138.404 34.8379 138.604 34.498 138.738 34.0293ZM138.879 31.5332C138.861 30.8184 138.677 30.2764 138.325 29.9072C137.974 29.5322 137.546 29.3447 137.042 29.3447C136.503 29.3447 136.058 29.541 135.706 29.9336C135.354 30.3262 135.182 30.8594 135.188 31.5332H138.879Z" fill="white"/>
</svg>
