<svg width="188" height="68" viewBox="0 0 188 68" fill="none" xmlns="http://www.w3.org/2000/svg">
<rect width="188" height="68" rx="34" fill="url(#paint0_linear)"/>
<path d="M68.3623 40V27.2207H70.9639V37.8291H77.4326V40H68.3623ZM78.707 35.2012C78.707 34.3809 78.9092 33.5869 79.3135 32.8193C79.7178 32.0518 80.2891 31.4658 81.0273 31.0615C81.7715 30.6572 82.6006 30.4551 83.5146 30.4551C84.9268 30.4551 86.084 30.915 86.9863 31.835C87.8887 32.749 88.3398 33.9062 88.3398 35.3066C88.3398 36.7188 87.8828 37.8906 86.9688 38.8223C86.0605 39.748 84.915 40.2109 83.5322 40.2109C82.6768 40.2109 81.8594 40.0176 81.0801 39.6309C80.3066 39.2441 79.7178 38.6787 79.3135 37.9346C78.9092 37.1846 78.707 36.2734 78.707 35.2012ZM81.2383 35.333C81.2383 36.2588 81.458 36.9678 81.8975 37.46C82.3369 37.9521 82.8789 38.1982 83.5234 38.1982C84.168 38.1982 84.707 37.9521 85.1406 37.46C85.5801 36.9678 85.7998 36.2529 85.7998 35.3154C85.7998 34.4014 85.5801 33.6982 85.1406 33.2061C84.707 32.7139 84.168 32.4678 83.5234 32.4678C82.8789 32.4678 82.3369 32.7139 81.8975 33.2061C81.458 33.6982 81.2383 34.4072 81.2383 35.333ZM90.0537 40.6152L92.875 40.958C92.9219 41.2861 93.0303 41.5117 93.2002 41.6348C93.4346 41.8105 93.8037 41.8984 94.3076 41.8984C94.9521 41.8984 95.4355 41.8018 95.7578 41.6084C95.9746 41.4795 96.1387 41.2715 96.25 40.9844C96.3262 40.7793 96.3643 40.4014 96.3643 39.8506V38.4883C95.626 39.4961 94.6943 40 93.5693 40C92.3154 40 91.3223 39.4697 90.5898 38.4092C90.0156 37.5713 89.7285 36.5283 89.7285 35.2803C89.7285 33.7158 90.1035 32.5205 90.8535 31.6943C91.6094 30.8682 92.5469 30.4551 93.666 30.4551C94.8203 30.4551 95.7725 30.9619 96.5225 31.9756V30.666H98.834V39.042C98.834 40.1436 98.7432 40.9668 98.5615 41.5117C98.3799 42.0566 98.125 42.4844 97.7969 42.7949C97.4688 43.1055 97.0293 43.3486 96.4785 43.5244C95.9336 43.7002 95.2422 43.7881 94.4043 43.7881C92.8223 43.7881 91.7002 43.5156 91.0381 42.9707C90.376 42.4316 90.0449 41.7461 90.0449 40.9141C90.0449 40.832 90.0479 40.7324 90.0537 40.6152ZM92.2598 35.1396C92.2598 36.1299 92.4502 36.8564 92.8311 37.3193C93.2178 37.7764 93.6924 38.0049 94.2549 38.0049C94.8584 38.0049 95.3682 37.7705 95.7842 37.3018C96.2002 36.8271 96.4082 36.127 96.4082 35.2012C96.4082 34.2344 96.209 33.5166 95.8105 33.0479C95.4121 32.5791 94.9082 32.3447 94.2988 32.3447C93.707 32.3447 93.2178 32.5762 92.8311 33.0391C92.4502 33.4961 92.2598 34.1963 92.2598 35.1396ZM106.234 40V27.1152H108.836V40H106.234ZM119.796 40H117.326V35.2363C117.326 34.2285 117.273 33.5781 117.168 33.2852C117.062 32.9863 116.89 32.7549 116.649 32.5908C116.415 32.4268 116.131 32.3447 115.797 32.3447C115.369 32.3447 114.985 32.4619 114.646 32.6963C114.306 32.9307 114.071 33.2412 113.942 33.6279C113.819 34.0146 113.758 34.7295 113.758 35.7725V40H111.288V30.666H113.582V32.0371C114.396 30.9824 115.422 30.4551 116.658 30.4551C117.203 30.4551 117.701 30.5547 118.152 30.7539C118.604 30.9473 118.943 31.1963 119.172 31.501C119.406 31.8057 119.567 32.1514 119.655 32.5381C119.749 32.9248 119.796 33.4785 119.796 34.1992V40Z" fill="white"/>
<defs>
<linearGradient id="paint0_linear" x1="94" y1="0" x2="94" y2="68" gradientUnits="userSpaceOnUse">
<stop stop-color="#5569FF"/>
<stop offset="1" stop-color="#0059DD" stop-opacity="0.655556"/>
</linearGradient>
</defs>
</svg>
