<svg width="219" height="60" viewBox="0 0 219 60" fill="none" xmlns="http://www.w3.org/2000/svg">
<rect width="219" height="60" rx="30" fill="#FFC701"/>
<path d="M74.7744 36V23.1152H80.25C81.627 23.1152 82.626 23.2324 83.2471 23.4668C83.874 23.6953 84.375 24.1055 84.75 24.6973C85.125 25.2891 85.3125 25.9658 85.3125 26.7275C85.3125 27.6943 85.0283 28.4941 84.46 29.127C83.8916 29.7539 83.042 30.1494 81.9111 30.3135C82.4736 30.6416 82.9365 31.002 83.2998 31.3945C83.6689 31.7871 84.1641 32.4844 84.7852 33.4863L86.3584 36H83.2471L81.3662 33.1963C80.6982 32.1943 80.2412 31.5645 79.9951 31.3066C79.749 31.043 79.4883 30.8643 79.2129 30.7705C78.9375 30.6709 78.501 30.6211 77.9033 30.6211H77.376V36H74.7744ZM77.376 28.5645H79.3008C80.5488 28.5645 81.3281 28.5117 81.6387 28.4062C81.9492 28.3008 82.1924 28.1191 82.3682 27.8613C82.5439 27.6035 82.6318 27.2812 82.6318 26.8945C82.6318 26.4609 82.5146 26.1123 82.2803 25.8486C82.0518 25.5791 81.7266 25.4092 81.3047 25.3389C81.0938 25.3096 80.4609 25.2949 79.4062 25.2949H77.376V28.5645ZM93.1611 33.0293L95.6221 33.4424C95.3057 34.3447 94.8047 35.0332 94.1191 35.5078C93.4395 35.9766 92.5869 36.2109 91.5615 36.2109C89.9385 36.2109 88.7373 35.6807 87.958 34.6201C87.3428 33.7705 87.0352 32.6982 87.0352 31.4033C87.0352 29.8564 87.4395 28.6465 88.248 27.7734C89.0566 26.8945 90.0791 26.4551 91.3154 26.4551C92.7041 26.4551 93.7998 26.915 94.6025 27.835C95.4053 28.749 95.7891 30.1523 95.7539 32.0449H89.5664C89.584 32.7773 89.7832 33.3486 90.1641 33.7588C90.5449 34.1631 91.0195 34.3652 91.5879 34.3652C91.9746 34.3652 92.2998 34.2598 92.5635 34.0488C92.8271 33.8379 93.0264 33.498 93.1611 33.0293ZM93.3018 30.5332C93.2842 29.8184 93.0996 29.2764 92.748 28.9072C92.3965 28.5322 91.9688 28.3447 91.4648 28.3447C90.9258 28.3447 90.4805 28.541 90.1289 28.9336C89.7773 29.3262 89.6045 29.8594 89.6104 30.5332H93.3018ZM97.5469 36.6152L100.368 36.958C100.415 37.2861 100.523 37.5117 100.693 37.6348C100.928 37.8105 101.297 37.8984 101.801 37.8984C102.445 37.8984 102.929 37.8018 103.251 37.6084C103.468 37.4795 103.632 37.2715 103.743 36.9844C103.819 36.7793 103.857 36.4014 103.857 35.8506V34.4883C103.119 35.4961 102.188 36 101.062 36C99.8086 36 98.8154 35.4697 98.083 34.4092C97.5088 33.5713 97.2217 32.5283 97.2217 31.2803C97.2217 29.7158 97.5967 28.5205 98.3467 27.6943C99.1025 26.8682 100.04 26.4551 101.159 26.4551C102.313 26.4551 103.266 26.9619 104.016 27.9756V26.666H106.327V35.042C106.327 36.1436 106.236 36.9668 106.055 37.5117C105.873 38.0566 105.618 38.4844 105.29 38.7949C104.962 39.1055 104.522 39.3486 103.972 39.5244C103.427 39.7002 102.735 39.7881 101.897 39.7881C100.315 39.7881 99.1934 39.5156 98.5312 38.9707C97.8691 38.4316 97.5381 37.7461 97.5381 36.9141C97.5381 36.832 97.541 36.7324 97.5469 36.6152ZM99.7529 31.1396C99.7529 32.1299 99.9434 32.8564 100.324 33.3193C100.711 33.7764 101.186 34.0049 101.748 34.0049C102.352 34.0049 102.861 33.7705 103.277 33.3018C103.693 32.8271 103.901 32.127 103.901 31.2012C103.901 30.2344 103.702 29.5166 103.304 29.0479C102.905 28.5791 102.401 28.3447 101.792 28.3447C101.2 28.3447 100.711 28.5762 100.324 29.0391C99.9434 29.4961 99.7529 30.1963 99.7529 31.1396ZM108.779 25.4004V23.1152H111.249V25.4004H108.779ZM108.779 36V26.666H111.249V36H108.779ZM112.919 33.3369L115.397 32.959C115.503 33.4395 115.717 33.8057 116.039 34.0576C116.361 34.3037 116.812 34.4268 117.393 34.4268C118.031 34.4268 118.512 34.3096 118.834 34.0752C119.051 33.9111 119.159 33.6914 119.159 33.416C119.159 33.2285 119.101 33.0732 118.983 32.9502C118.86 32.833 118.585 32.7246 118.157 32.625C116.165 32.1855 114.902 31.7842 114.369 31.4209C113.631 30.917 113.262 30.2168 113.262 29.3203C113.262 28.5117 113.581 27.832 114.22 27.2812C114.858 26.7305 115.849 26.4551 117.19 26.4551C118.468 26.4551 119.417 26.6631 120.038 27.0791C120.659 27.4951 121.087 28.1104 121.321 28.9248L118.992 29.3555C118.893 28.9922 118.702 28.7139 118.421 28.5205C118.146 28.3271 117.75 28.2305 117.234 28.2305C116.584 28.2305 116.118 28.3213 115.837 28.5029C115.649 28.6318 115.556 28.7988 115.556 29.0039C115.556 29.1797 115.638 29.3291 115.802 29.4521C116.024 29.6162 116.792 29.8477 118.104 30.1465C119.423 30.4453 120.343 30.8115 120.864 31.2451C121.38 31.6846 121.638 32.2969 121.638 33.082C121.638 33.9375 121.28 34.6729 120.565 35.2881C119.851 35.9033 118.793 36.2109 117.393 36.2109C116.121 36.2109 115.113 35.9531 114.369 35.4375C113.631 34.9219 113.147 34.2217 112.919 33.3369ZM128.089 26.666V28.6348H126.401V32.3965C126.401 33.1582 126.416 33.6035 126.445 33.7324C126.48 33.8555 126.554 33.958 126.665 34.04C126.782 34.1221 126.923 34.1631 127.087 34.1631C127.315 34.1631 127.646 34.084 128.08 33.9258L128.291 35.8418C127.717 36.0879 127.066 36.2109 126.34 36.2109C125.895 36.2109 125.493 36.1377 125.136 35.9912C124.778 35.8389 124.515 35.6455 124.345 35.4111C124.181 35.1709 124.066 34.8486 124.002 34.4443C123.949 34.1572 123.923 33.5771 123.923 32.7041V28.6348H122.789V26.666H123.923V24.8115L126.401 23.3701V26.666H128.089ZM135.208 33.0293L137.669 33.4424C137.353 34.3447 136.852 35.0332 136.166 35.5078C135.486 35.9766 134.634 36.2109 133.608 36.2109C131.985 36.2109 130.784 35.6807 130.005 34.6201C129.39 33.7705 129.082 32.6982 129.082 31.4033C129.082 29.8564 129.486 28.6465 130.295 27.7734C131.104 26.8945 132.126 26.4551 133.362 26.4551C134.751 26.4551 135.847 26.915 136.649 27.835C137.452 28.749 137.836 30.1523 137.801 32.0449H131.613C131.631 32.7773 131.83 33.3486 132.211 33.7588C132.592 34.1631 133.066 34.3652 133.635 34.3652C134.021 34.3652 134.347 34.2598 134.61 34.0488C134.874 33.8379 135.073 33.498 135.208 33.0293ZM135.349 30.5332C135.331 29.8184 135.146 29.2764 134.795 28.9072C134.443 28.5322 134.016 28.3447 133.512 28.3447C132.973 28.3447 132.527 28.541 132.176 28.9336C131.824 29.3262 131.651 29.8594 131.657 30.5332H135.349ZM142.187 36H139.717V26.666H142.011V27.9932C142.403 27.3662 142.755 26.9531 143.065 26.7539C143.382 26.5547 143.739 26.4551 144.138 26.4551C144.7 26.4551 145.242 26.6104 145.764 26.9209L144.999 29.0742C144.583 28.8047 144.196 28.6699 143.839 28.6699C143.493 28.6699 143.2 28.7666 142.96 28.96C142.72 29.1475 142.529 29.4902 142.389 29.9883C142.254 30.4863 142.187 31.5293 142.187 33.1172V36Z" fill="white"/>
</svg>
