<svg width="188" height="68" viewBox="0 0 188 68" fill="none" xmlns="http://www.w3.org/2000/svg">
<rect x="2.82709" width="185.173" height="68" rx="34" fill="url(#paint0_linear)"/>
<path d="M60.6279 35.8076L63.1592 35.5615C63.3115 36.4111 63.6191 37.0352 64.082 37.4336C64.5508 37.832 65.1807 38.0312 65.9717 38.0312C66.8096 38.0312 67.4395 37.8555 67.8613 37.5039C68.2891 37.1465 68.5029 36.7305 68.5029 36.2559C68.5029 35.9512 68.4121 35.6934 68.2305 35.4824C68.0547 35.2656 67.7441 35.0781 67.2988 34.9199C66.9941 34.8145 66.2998 34.627 65.2158 34.3574C63.8213 34.0117 62.8428 33.5869 62.2803 33.083C61.4893 32.374 61.0938 31.5098 61.0938 30.4902C61.0938 29.834 61.2783 29.2217 61.6475 28.6533C62.0225 28.0791 62.5586 27.6426 63.2559 27.3438C63.959 27.0449 64.8057 26.8955 65.7959 26.8955C67.4131 26.8955 68.6289 27.25 69.4434 27.959C70.2637 28.668 70.6943 29.6143 70.7354 30.7979L68.1338 30.9121C68.0225 30.25 67.7822 29.7754 67.4131 29.4883C67.0498 29.1953 66.502 29.0488 65.7695 29.0488C65.0137 29.0488 64.4219 29.2041 63.9941 29.5146C63.7188 29.7139 63.5811 29.9805 63.5811 30.3145C63.5811 30.6191 63.71 30.8799 63.9678 31.0967C64.2959 31.3721 65.0928 31.6592 66.3584 31.958C67.624 32.2568 68.5586 32.5674 69.1621 32.8896C69.7715 33.2061 70.2461 33.6426 70.5859 34.1992C70.9316 34.75 71.1045 35.4326 71.1045 36.2471C71.1045 36.9854 70.8994 37.6768 70.4893 38.3213C70.0791 38.9658 69.499 39.4463 68.749 39.7627C67.999 40.0732 67.0645 40.2285 65.9453 40.2285C64.3164 40.2285 63.0654 39.8535 62.1924 39.1035C61.3193 38.3477 60.7979 37.249 60.6279 35.8076ZM73.2754 29.4004V27.1152H75.7451V29.4004H73.2754ZM73.2754 40V30.666H75.7451V40H73.2754ZM78.0566 40.6152L80.8779 40.958C80.9248 41.2861 81.0332 41.5117 81.2031 41.6348C81.4375 41.8105 81.8066 41.8984 82.3105 41.8984C82.9551 41.8984 83.4385 41.8018 83.7607 41.6084C83.9775 41.4795 84.1416 41.2715 84.2529 40.9844C84.3291 40.7793 84.3672 40.4014 84.3672 39.8506V38.4883C83.6289 39.4961 82.6973 40 81.5723 40C80.3184 40 79.3252 39.4697 78.5928 38.4092C78.0186 37.5713 77.7314 36.5283 77.7314 35.2803C77.7314 33.7158 78.1064 32.5205 78.8564 31.6943C79.6123 30.8682 80.5498 30.4551 81.6689 30.4551C82.8232 30.4551 83.7754 30.9619 84.5254 31.9756V30.666H86.8369V39.042C86.8369 40.1436 86.7461 40.9668 86.5645 41.5117C86.3828 42.0566 86.1279 42.4844 85.7998 42.7949C85.4717 43.1055 85.0322 43.3486 84.4814 43.5244C83.9365 43.7002 83.2451 43.7881 82.4072 43.7881C80.8252 43.7881 79.7031 43.5156 79.041 42.9707C78.3789 42.4316 78.0479 41.7461 78.0479 40.9141C78.0479 40.832 78.0508 40.7324 78.0566 40.6152ZM80.2627 35.1396C80.2627 36.1299 80.4531 36.8564 80.834 37.3193C81.2207 37.7764 81.6953 38.0049 82.2578 38.0049C82.8613 38.0049 83.3711 37.7705 83.7871 37.3018C84.2031 36.8271 84.4111 36.127 84.4111 35.2012C84.4111 34.2344 84.2119 33.5166 83.8135 33.0479C83.415 32.5791 82.9111 32.3447 82.3018 32.3447C81.71 32.3447 81.2207 32.5762 80.834 33.0391C80.4531 33.4961 80.2627 34.1963 80.2627 35.1396ZM97.7793 40H95.3096V35.2363C95.3096 34.2285 95.2568 33.5781 95.1514 33.2852C95.0459 32.9863 94.873 32.7549 94.6328 32.5908C94.3984 32.4268 94.1143 32.3447 93.7803 32.3447C93.3525 32.3447 92.9688 32.4619 92.6289 32.6963C92.2891 32.9307 92.0547 33.2412 91.9258 33.6279C91.8027 34.0146 91.7412 34.7295 91.7412 35.7725V40H89.2715V30.666H91.5654V32.0371C92.3799 30.9824 93.4053 30.4551 94.6416 30.4551C95.1865 30.4551 95.6846 30.5547 96.1357 30.7539C96.5869 30.9473 96.9268 31.1963 97.1553 31.501C97.3896 31.8057 97.5508 32.1514 97.6387 32.5381C97.7324 32.9248 97.7793 33.4785 97.7793 34.1992V40ZM105.303 27.1152H107.904V34.0938C107.904 35.2012 107.937 35.9189 108.001 36.2471C108.112 36.7744 108.376 37.1992 108.792 37.5215C109.214 37.8379 109.788 37.9961 110.515 37.9961C111.253 37.9961 111.81 37.8467 112.185 37.5479C112.56 37.2432 112.785 36.8711 112.861 36.4316C112.938 35.9922 112.976 35.2627 112.976 34.2432V27.1152H115.577V33.8828C115.577 35.4297 115.507 36.5225 115.366 37.1611C115.226 37.7998 114.965 38.3389 114.584 38.7783C114.209 39.2178 113.705 39.5693 113.072 39.833C112.439 40.0908 111.613 40.2197 110.594 40.2197C109.363 40.2197 108.429 40.0791 107.79 39.7979C107.157 39.5107 106.656 39.1416 106.287 38.6904C105.918 38.2334 105.675 37.7559 105.558 37.2578C105.388 36.5195 105.303 35.4297 105.303 33.9883V27.1152ZM118.24 30.666H120.543V32.0371C120.842 31.5684 121.246 31.1875 121.756 30.8945C122.266 30.6016 122.831 30.4551 123.452 30.4551C124.536 30.4551 125.456 30.8799 126.212 31.7295C126.968 32.5791 127.346 33.7627 127.346 35.2803C127.346 36.8389 126.965 38.0518 126.203 38.9189C125.441 39.7803 124.519 40.2109 123.435 40.2109C122.919 40.2109 122.45 40.1084 122.028 39.9033C121.612 39.6982 121.173 39.3467 120.71 38.8486V43.5508H118.24V30.666ZM120.684 35.1748C120.684 36.2236 120.892 37 121.308 37.5039C121.724 38.002 122.23 38.251 122.828 38.251C123.402 38.251 123.88 38.0225 124.261 37.5654C124.642 37.1025 124.832 36.3467 124.832 35.2979C124.832 34.3193 124.636 33.5928 124.243 33.1182C123.851 32.6436 123.364 32.4062 122.784 32.4062C122.181 32.4062 121.68 32.6406 121.281 33.1094C120.883 33.5723 120.684 34.2607 120.684 35.1748Z" fill="white"/>
<defs>
<linearGradient id="paint0_linear" x1="95.4136" y1="0" x2="95.4136" y2="68" gradientUnits="userSpaceOnUse">
<stop stop-color="#5569FF"/>
<stop offset="1" stop-color="#0059DD" stop-opacity="0.655556"/>
</linearGradient>
</defs>
</svg>
