<svg width="169" height="79" viewBox="0 0 169 79" fill="none" xmlns="http://www.w3.org/2000/svg">
<rect x="0.888184" y="0.57251" width="167.791" height="77.603" rx="38.8015" fill="#FFC701"/>
<path d="M54.1522 42.6626L56.6835 42.4165C56.8358 43.2661 57.1434 43.8901 57.6063 44.2886C58.0751 44.687 58.705 44.8862 59.496 44.8862C60.3339 44.8862 60.9638 44.7104 61.3856 44.3589C61.8134 44.0015 62.0272 43.5854 62.0272 43.1108C62.0272 42.8062 61.9364 42.5483 61.7548 42.3374C61.579 42.1206 61.2684 41.9331 60.8231 41.7749C60.5184 41.6694 59.8241 41.4819 58.7401 41.2124C57.3456 40.8667 56.3671 40.4419 55.8046 39.938C55.0136 39.229 54.618 38.3647 54.618 37.3452C54.618 36.689 54.8026 36.0767 55.1718 35.5083C55.5468 34.9341 56.0829 34.4976 56.7802 34.1987C57.4833 33.8999 58.33 33.7505 59.3202 33.7505C60.9374 33.7505 62.1532 34.105 62.9677 34.814C63.788 35.5229 64.2186 36.4692 64.2597 37.6528L61.6581 37.7671C61.5468 37.105 61.3065 36.6304 60.9374 36.3433C60.5741 36.0503 60.0263 35.9038 59.2938 35.9038C58.538 35.9038 57.9462 36.0591 57.5184 36.3696C57.243 36.5688 57.1054 36.8354 57.1054 37.1694C57.1054 37.4741 57.2343 37.7349 57.4921 37.9517C57.8202 38.2271 58.6171 38.5142 59.8827 38.813C61.1483 39.1118 62.0829 39.4224 62.6864 39.7446C63.2958 40.061 63.7704 40.4976 64.1102 41.0542C64.4559 41.605 64.6288 42.2876 64.6288 43.1021C64.6288 43.8403 64.4237 44.5317 64.0136 45.1763C63.6034 45.8208 63.0233 46.3013 62.2733 46.6177C61.5233 46.9282 60.5888 47.0835 59.4696 47.0835C57.8407 47.0835 56.5897 46.7085 55.7167 45.9585C54.8436 45.2026 54.3222 44.104 54.1522 42.6626ZM66.7997 36.2554V33.9702H69.2694V36.2554H66.7997ZM66.7997 46.855V37.521H69.2694V46.855H66.7997ZM71.5809 47.4702L74.4022 47.813C74.4491 48.1411 74.5575 48.3667 74.7274 48.4897C74.9618 48.6655 75.3309 48.7534 75.8348 48.7534C76.4794 48.7534 76.9628 48.6567 77.285 48.4634C77.5018 48.3345 77.6659 48.1265 77.7772 47.8394C77.8534 47.6343 77.8915 47.2563 77.8915 46.7056V45.3433C77.1532 46.3511 76.2216 46.855 75.0966 46.855C73.8427 46.855 72.8495 46.3247 72.1171 45.2642C71.5429 44.4263 71.2557 43.3833 71.2557 42.1353C71.2557 40.5708 71.6307 39.3755 72.3807 38.5493C73.1366 37.7231 74.0741 37.3101 75.1932 37.3101C76.3475 37.3101 77.2997 37.8169 78.0497 38.8306V37.521H80.3612V45.897C80.3612 46.9985 80.2704 47.8218 80.0888 48.3667C79.9071 48.9116 79.6522 49.3394 79.3241 49.6499C78.996 49.9604 78.5565 50.2036 78.0057 50.3794C77.4608 50.5552 76.7694 50.6431 75.9315 50.6431C74.3495 50.6431 73.2274 50.3706 72.5653 49.8257C71.9032 49.2866 71.5722 48.6011 71.5722 47.769C71.5722 47.687 71.5751 47.5874 71.5809 47.4702ZM73.787 41.9946C73.787 42.9849 73.9774 43.7114 74.3583 44.1743C74.745 44.6313 75.2196 44.8599 75.7821 44.8599C76.3856 44.8599 76.8954 44.6255 77.3114 44.1567C77.7274 43.6821 77.9354 42.9819 77.9354 42.0562C77.9354 41.0894 77.7362 40.3716 77.3378 39.9028C76.9393 39.4341 76.4354 39.1997 75.8261 39.1997C75.2343 39.1997 74.745 39.4312 74.3583 39.894C73.9774 40.3511 73.787 41.0513 73.787 41.9946ZM91.3036 46.855H88.8339V42.0913C88.8339 41.0835 88.7811 40.4331 88.6757 40.1401C88.5702 39.8413 88.3973 39.6099 88.1571 39.4458C87.9227 39.2817 87.6386 39.1997 87.3046 39.1997C86.8768 39.1997 86.493 39.3169 86.1532 39.5513C85.8134 39.7856 85.579 40.0962 85.4501 40.4829C85.327 40.8696 85.2655 41.5845 85.2655 42.6274V46.855H82.7958V37.521H85.0897V38.8921C85.9042 37.8374 86.9296 37.3101 88.1659 37.3101C88.7108 37.3101 89.2089 37.4097 89.66 37.6089C90.1112 37.8022 90.4511 38.0513 90.6796 38.356C90.9139 38.6606 91.0751 39.0063 91.163 39.3931C91.2567 39.7798 91.3036 40.3335 91.3036 41.0542V46.855ZM98.7655 46.855V33.9702H101.367V46.855H98.7655ZM112.327 46.855H109.857V42.0913C109.857 41.0835 109.805 40.4331 109.699 40.1401C109.594 39.8413 109.421 39.6099 109.181 39.4458C108.946 39.2817 108.662 39.1997 108.328 39.1997C107.9 39.1997 107.516 39.3169 107.177 39.5513C106.837 39.7856 106.602 40.0962 106.474 40.4829C106.35 40.8696 106.289 41.5845 106.289 42.6274V46.855H103.819V37.521H106.113V38.8921C106.928 37.8374 107.953 37.3101 109.189 37.3101C109.734 37.3101 110.232 37.4097 110.683 37.6089C111.135 37.8022 111.474 38.0513 111.703 38.356C111.937 38.6606 112.099 39.0063 112.186 39.3931C112.28 39.7798 112.327 40.3335 112.327 41.0542V46.855Z" fill="white"/>
</svg>
